SplineFontDB: 3.0
FontName: StickNoBills
FullName: Stick No Bills
FamilyName: Stick No Bills
Weight: Regular
Copyright: Copyright (c) 2013, STICK NO BILLS\nCopyright (c) 2015, mooniak\n
UComments: "2015-2-15: Created with FontForge (http://fontforge.org)"
Version: BETA 001.000
ItalicAngle: 0
UnderlinePosition: -102
UnderlineWidth: 51
Ascent: 819
Descent: 205
InvalidEm: 0
LayerCount: 2
Layer: 0 0 "Back" 1
Layer: 1 0 "Fore" 0
XUID: [1021 792 -450466945 9124014]
FSType: 0
OS2Version: 0
OS2_WeightWidthSlopeOnly: 0
OS2_UseTypoMetrics: 1
CreationTime: 1423989519
ModificationTime: 1425298253
PfmFamily: 81
TTFWeight: 400
TTFWidth: 5
LineGap: 94
VLineGap: 0
OS2TypoAscent: 0
OS2TypoAOffset: 1
OS2TypoDescent: 0
OS2TypoDOffset: 1
OS2TypoLinegap: 94
OS2WinAscent: 0
OS2WinAOffset: 1
OS2WinDescent: 0
OS2WinDOffset: 1
HheadAscent: 0
HheadAOffset: 1
HheadDescent: 0
HheadDOffset: 1
OS2CapHeight: 0
OS2XHeight: 0
OS2Vendor: 'PfEd'
OS2UnicodeRanges: 00000002.00000000.00000000.00000000
MarkAttachClasses: 1
DEI: 91125
LangName: 1033 "" "" "" "SNBMooniak_beta" "" "" "" "STICK NO BILLS is a trademark of STICK NO BILLS Gallery, Sri Lanka <http://sticknobillsonline.com>" "mooniak <http://mooniak.com>" "Martyn Hodges <allroundboatbuilder@yahoo.com> , mooniak <hello@mooniak.com>" " Stick No Bills - is the bespoke typeface of STICK NO BILLS+ISIA Poster Gallery in Galle, Sri Lanka. " "https://github.com/mooniak/stick-no-bills-font" "http://mooniak.com/type" "This Font Software is licensed under the SIL Open Font License, Version 1.1. This license is available with a FAQ at: http://scripts.sil.org/OFL"
Encoding: ISO8859-1
UnicodeInterp: none
NameList: AGL For New Fonts
DisplaySize: -128
AntiAlias: 1
FitToEm: 1
WinInfo: 100 10 4
BeginPrivate: 0
EndPrivate
Grid
-1024 270 m 0
 2048 270 l 1024
-1024 405 m 0
 2048 405 l 1024
-1024 347.5 m 0
 2048 347.5 l 1024
-1024 -144 m 0
 2048 -144 l 1024
209 1331 m 0
 209 -717 l 1024
48.998046875 1331 m 0
 48.998046875 -717 l 1024
-1024 -182 m 0
 2048 -182 l 1024

StartChar: A
Encoding: 65 65 0
Width: 577
VWidth: 0
Flags: HW
HStem: 0 21G<50 192.371 385.294 527> 0 21G<50 192.371 385.294 527> 680 20G<237 380.314>
VStem: 176 17<549.098 582>
LayerCount: 2
Back
Fore
SplineSet
237 700 m 25xb0
 376 700 l 25
 527 0 l 25
 390 0 l 25
 370 85 l 25
 276 85 l 25
 306 224 l 25
 340 224 l 25
 237 700 l 25xb0
189 582 m 29
 206 582 l 29
 267 302 l 29
 201 0 l 29
 63 0 l 29
 189 582 l 29
EndSplineSet
Validated: 1
EndChar

StartChar: B
Encoding: 66 66 1
Width: 530
VWidth: 0
Flags: W
HStem: -2 21G<68 209> -2 122<267 337.687> 287 122<265 334.579> 575 124<264 335.16> 678 20G<68 209>
VStem: 68 141<-2 698> 366 124<148.229 257.831 441.196 545.277>
LayerCount: 2
Back
Fore
SplineSet
266 120 m 17x76
 353 120 366 176.98828125 366 203 c 3
 366 225 355 287 265 287 c 9
 265 409 l 17
 325 409 364 444 364 495 c 27
 364 545 323 574 264 575 c 9
 264 699 l 17
 433 696 489 585 489 511 c 3
 489 406 441 353 427 350 c 1
 455 331 490 270 490 195 c 3
 490 66 388 -1 267 -2 c 9
 266 120 l 17x76
EndSplineSet
Refer: 2 -1 N 1 0 0 1 24 -2 2
Validated: 1
Colour: ff0000
EndChar

StartChar: .notdef
Encoding: 256 -1 2
Width: 1024
VWidth: 0
Flags: W
HStem: 0 21G<44 185> 680 20G<44 185>
VStem: 44 141<0 700>
LayerCount: 2
Back
Fore
SplineSet
44 700 m 5
 185 700 l 5
 185 0 l 5
 44 0 l 5
 44 700 l 5
EndSplineSet
Validated: 1
EndChar

StartChar: D
Encoding: 68 68 3
Width: 499
VWidth: 0
Flags: W
HStem: -0.5 21G<264.5 294.5> -0.5 21G<264.5 294.5> 0 21G<67 208> 193 3.75<320 461> 501.125 5.625<320 461> 677.875 20G<264.125 335.773> 680 20G<67 208>
VStem: 67 141<0 700> 320 141<158.081 542.676>
LayerCount: 2
Back
Fore
SplineSet
264.125 697.875 m 3x1d80
 407.421875 697.875 461.375 564.125 461.375 501.125 c 4
 319.875 501.125 l 3
 319.875 506.125 312.125 556.114257812 264.125 556.625 c 4
 264.125 697.875 l 3x1d80
320 506.75 m 1
 461 506.75 l 1
 461 193 l 1
 320 193 l 1
 320 506.75 l 1
461.25 196.75 m 7
 461.25 50.453125 324.5 -0.5 264.5 -0.5 c 0x9980
 264.5 141 l 3
 269.5 141 319.489257812 148.75 320 196.75 c 4
 461.25 196.75 l 7
EndSplineSet
Refer: 2 -1 N 1 0 0 1 23 0 2
Validated: 5
EndChar

StartChar: K
Encoding: 75 75 7
Width: 510
VWidth: 0
Flags: W
HStem: 0 21G<68.4982 209.498 350.999 493.498> 0 21G<350.999 493.498> 680 20G<68.4982 209.498 344.519 489.498>
VStem: 68.4982 141<0 700>
LayerCount: 2
Back
Fore
SplineSet
350.498046875 700 m 1xb0
 489.498046875 700 l 1
 403.498046875 409 l 1
 493.498046875 0 l 25
 355.498046875 0 l 25
 263.498046875 409 l 1
 350.498046875 700 l 1xb0
EndSplineSet
Refer: 2 -1 N 1 0 0 1 24.4982 0 2
Validated: 1
EndChar

StartChar: P
Encoding: 80 80 8
Width: 527
VWidth: 0
Flags: W
HStem: 0 21G<68 209> 680 20G<68 209 264 354.5>
VStem: 68 141<0 700> 348 143<466.418 553.182>
LayerCount: 2
Back
Fore
SplineSet
264 457 m 1
 297 457 l 26
 297 457 348 454.954101562 348 508 c 3
 348 564.010742188 297 561 297 561 c 26
 264 561 l 1
 264 700 l 17
 445 700 491 626 491 512 c 3
 491 369 421 318 264 318 c 9
 264 457 l 1
EndSplineSet
Refer: 2 -1 S 1 0 0 1 24 0 2
Validated: 33
EndChar

StartChar: M
Encoding: 77 77 9
Width: 717
VWidth: 0
Flags: HW
HStem: 0 21G<50 191.065 294.865 408.855> 1.40002 21G<526 667> 680.667 20G<50 168.274> 681.4 20G<526 667>
VStem: 50 141<0 124> 526 141<1.40002 701.4>
LayerCount: 2
Back
Fore
SplineSet
49 698 m 1x96
 159 698 l 1
 350.404296875 235.333007812 l 1
 456 473.788085938 l 1
 466.19921875 473.333007812 l 1
 466.298828125 149.333007812 l 1
 399 -2.6669921875 l 1
 302 -2.6669921875 l 1
 49 606.333007812 l 1
 49 698 l 1x96
49 -2.6669921875 m 1
 49 433.333007812 l 1
 58 433.333007812 l 1
 190.404296875 123.333007812 l 1
 190 -2.6669921875 l 1
 49 -2.6669921875 l 1
EndSplineSet
Refer: 2 -1 N 1 0 0 1 477 -2.26697 2
Validated: 1
EndChar

StartChar: R
Encoding: 82 82 10
Width: 526
VWidth: 0
Flags: W
HStem: -2 21G<68 209> 0 21G<366 492> 0 21G<366 492> 286 125<265 336.244> 318 28<265 422> 567 133<265 335.775> 678 20G<68 209>
VStem: 68 141<-2 698> 364 127<0 260.263 433.489 540.965>
LayerCount: 2
Back
SplineSet
473.075195312 459.14453125 m 1
 470.276367188 459.64453125 l 1
 474.370117188 482.551757812 474.407226562 506 470.389648438 528.921875 c 1
 473.189453125 529.412109375 l 1
 477.264648438 506.163085938 477.2265625 482.379882812 473.075195312 459.14453125 c 1
473.04296875 529.896484375 m 1
 470.247070312 529.3828125 l 1
 466.125 551.831054688 457.998046875 573.354492188 446.252929688 592.923828125 c 1
 448.690429688 594.38671875 l 1
 460.611328125 574.524414062 468.859375 552.6796875 473.04296875 529.896484375 c 1
448.76953125 594.1875 m 1
 446.318359375 592.747070312 l 1
 434.106445312 613.518554688 418.619140625 632.18359375 400.458007812 648.020507812 c 1
 402.327148438 650.163085938 l 1
 420.717773438 634.125 436.401367188 615.223632812 448.76953125 594.1875 c 1
402.370117188 649.822265625 m 1
 400.517578125 647.666015625 l 1
 382.690429688 662.985351562 362.234375 674.944335938 340.141601562 682.966796875 c 1
 341.112304688 685.638671875 l 1
 363.52734375 677.499023438 384.282226562 665.365234375 402.370117188 649.822265625 c 1
341.114257812 686.18359375 m 1
 340.12890625 683.517578125 l 1
 318.252929688 691.603515625 295.130859375 695.802734375 271.807617188 695.921875 c 1
 271.822265625 698.764648438 l 1
 295.4765625 698.643554688 318.927734375 694.384765625 341.114257812 686.18359375 c 1
271.837890625 698.341796875 m 1
 271.837890625 695.5 l 1
 251.513671875 695.5 l 1
 251.513671875 574.263671875 l 1
 271.412109375 574.263671875 l 1
 271.412109375 571.421875 l 1
 248.670898438 571.421875 l 1
 248.670898438 698.341796875 l 1
 271.837890625 698.341796875 l 1
301.846679688 567.631835938 m 1
 300.729492188 565.018554688 l 1
 291.421875 568.995117188 281.4765625 571.276367188 271.365234375 571.75390625 c 1
 271.5 574.59375 l 1
 281.94921875 574.099609375 292.2265625 571.7421875 301.846679688 567.631835938 c 1
327.169921875 550.580078125 m 1
 325.14453125 548.5859375 l 1
 318.2421875 555.595703125 310.030273438 561.180664062 300.973632812 565.024414062 c 1
 302.084960938 567.641601562 l 1
 311.483398438 563.651367188 320.005859375 557.85546875 327.169921875 550.580078125 c 1
344.131835938 524.376953125 m 1
 341.4765625 523.362304688 l 1
 337.88671875 532.7578125 332.40625 541.315429688 325.37109375 548.502929688 c 1
 327.40234375 550.491210938 l 1
 334.709960938 543.024414062 340.403320312 534.13671875 344.131835938 524.376953125 c 1
349.581054688 491.604492188 m 1
 346.73828125 491.618164062 l 1
 346.790039062 502.401367188 344.875976562 513.103515625 341.090820312 523.200195312 c 1
 343.752929688 524.198242188 l 1
 347.659179688 513.77734375 349.633789062 502.733398438 349.581054688 491.604492188 c 1
343.58203125 459.168945312 m 1
 340.927734375 460.184570312 l 1
 344.80078125 470.301757812 346.771484375 481.045898438 346.739257812 491.87890625 c 1
 349.581054688 491.887695312 l 1
 349.615234375 480.704101562 347.580078125 469.612304688 343.58203125 459.168945312 c 1
326.267578125 432.779296875 m 1
 324.248046875 434.779296875 l 1
 331.41796875 442.014648438 337.033203125 450.640625 340.747070312 460.125976562 c 1
 343.393554688 459.08984375 l 1
 339.5390625 449.243164062 333.709960938 440.2890625 326.267578125 432.779296875 c 1
301.107421875 415.504882812 m 1
 300.0078125 418.125976562 l 1
 309.102539062 421.943359375 317.362304688 427.504882812 324.321289062 434.498046875 c 1
 326.3359375 432.493164062 l 1
 319.116210938 425.237304688 310.544921875 419.466796875 301.107421875 415.504882812 c 1
271.631835938 409.401367188 m 1
 271.600585938 412.243164062 l 1
 281.412109375 412.353515625 291.104492188 414.41796875 300.110351562 418.318359375 c 1
 301.239257812 415.709960938 l 1
 291.887695312 411.659179688 281.822265625 409.515625 271.631835938 409.401367188 c 1
271.412109375 412.23828125 m 1
 271.412109375 409.396484375 l 1
 251.513671875 409.396484375 l 1
 251.513671875 287.30859375 l 1
 271.412109375 287.30859375 l 1
 271.412109375 284.466796875 l 1
 248.670898438 284.466796875 l 1
 248.670898438 412.23828125 l 1
 271.412109375 412.23828125 l 1
297.642578125 281.75 m 1
 296.517578125 279.139648438 l 1
 288.694335938 282.512695312 280.322265625 284.4375 271.8125 284.821289062 c 1
 271.94140625 287.661132812 l 1
 280.793945312 287.26171875 289.502929688 285.258789062 297.642578125 281.75 c 1
325.545898438 263.012695312 m 1
 323.594726562 260.946289062 l 1
 315.6484375 268.448242188 306.474609375 274.53125 296.470703125 278.932617188 c 1
 297.615234375 281.534179688 l 1
 307.916015625 277.001953125 317.36328125 270.73828125 325.545898438 263.012695312 c 1
345.498046875 234.224609375 m 1
 342.8828125 233.112304688 l 1
 338.422851562 243.600585938 331.91796875 253.09375 323.747070312 261.040039062 c 1
 325.728515625 263.078125 l 1
 334.169921875 254.869140625 340.891601562 245.060546875 345.498046875 234.224609375 c 1
351.712890625 201.7890625 m 1
 348.87109375 201.78515625 l 1
 348.856445312 212.631835938 346.642578125 223.36328125 342.364257812 233.330078125 c 1
 344.975585938 234.451171875 l 1
 349.40625 224.130859375 351.698242188 213.020507812 351.712890625 201.7890625 c 1
348.872070312 201.463867188 m 1
 351.713867188 201.463867188 l 1
 351.713867188 1.2060546875 l 1
 472.94921875 1.2060546875 l 1
 472.94921875 217.240234375 l 1
 475.791015625 217.240234375 l 1
 475.791015625 -1.6357421875 l 1
 348.872070312 -1.6357421875 l 1
 348.872070312 201.463867188 l 1
476.203125 217.299804688 m 1
 473.361328125 217.260742188 l 1
 473.16796875 231.176757812 470.893554688 244.984375 466.612304688 258.227539062 c 1
 469.317382812 259.102539062 l 1
 473.685546875 245.588867188 476.005859375 231.499023438 476.203125 217.299804688 c 1
468.788085938 259.153320312 m 1
 466.081054688 258.286132812 l 1
 462.115234375 270.671875 457.259765625 282.752929688 451.548828125 294.4375 c 1
 454.103515625 295.685546875 l 1
 459.874023438 283.877929688 464.78125 271.668945312 468.788085938 259.153320312 c 1
454.51171875 295.896484375 m 1
 451.953125 294.658203125 l 1
 446.975585938 304.94921875 440.7734375 314.6015625 433.482421875 323.40625 c 1
 435.671875 325.21875 l 1
 443.109375 316.23828125 449.434570312 306.392578125 454.51171875 295.896484375 c 1
435.3828125 324.840820312 m 1
 433.203125 323.016601562 l 1
 426.133789062 331.465820312 418.700195312 339.600585938 410.923828125 347.40234375 c 1
 412.9375 349.409179688 l 1
 420.771484375 341.549804688 428.260742188 333.352539062 435.3828125 324.840820312 c 1
412.780273438 347.76171875 m 1
 410.958007812 349.943359375 l 1
 426.012695312 362.520507812 438.45703125 377.92578125 447.588867188 395.288085938 c 1
 450.104492188 393.965820312 l 1
 440.80078125 376.2734375 428.120117188 360.577148438 412.780273438 347.76171875 c 1
450.065429688 393.885742188 m 1
 447.557617188 395.223632812 l 1
 458.37890625 415.501953125 465.944335938 437.356445312 469.975585938 459.986328125 c 1
 472.774414062 459.48828125 l 1
 468.690429688 436.564453125 461.02734375 414.426757812 450.065429688 393.885742188 c 1
50.2607421875 695.5 m 1
 50.2607421875 1.2060546875 l 1
 186.846679688 1.2060546875 l 1
 186.846679688 695.5 l 1
 50.2607421875 695.5 l 1
48.83984375 696.920898438 m 1
 48.83984375 698.341796875 l 1
 189.688476562 698.341796875 l 1
 189.688476562 -1.6357421875 l 1
 47.41796875 -1.6357421875 l 1
 47.41796875 696.920898438 l 1
 48.83984375 696.920898438 l 1
EndSplineSet
Fore
SplineSet
265 286 m 9x5180
 265 346 l 25x0980
 426 352 l 17
 462.239257812 324.913085938 489.538085938 267.135742188 490 217 c 10
 492 0 l 25
 366 0 l 25
 366 178 l 18
 366 258.6171875 336.244140625 285.143554688 265 286 c 9x5180
265 411 m 1x1180
 278 411 l 18x1180
 338.034179688 411 364 446.702148438 364 488 c 0
 364 535.646484375 326.698242188 567 278 567 c 10
 265 567 l 1
 265 700 l 17
 415 700 491 616 491 496 c 3
 491 374 422 318 265 318 c 1
 265 346 l 1x0d80
 265 411 l 1x1180
EndSplineSet
Refer: 2 -1 S 1 0 0 1 24 -2 2
Validated: 5
EndChar

StartChar: J
Encoding: 74 74 11
Width: 531
VWidth: 0
Flags: W
HStem: -7.5 197.25 -7.5 246.5<131.072 163.25> 183 15.51G<319.5 460.5> 685.229 14.7714G<319.5 460.5>
VStem: 22.25 141<147.192 239> 264 196.75 319.5 141<183 700>
LayerCount: 2
Back
SplineSet
46.6689453125 179.250976562 m 1025,3,-1
EndSplineSet
Fore
Refer: 17 -1 S -1 0 0 1 486.25 0 2
Refer: 18 -1 N 1 0 0 1 -4.5 0 2
Validated: 21
EndChar

StartChar: C
Encoding: 67 67 12
Width: 535
VWidth: 0
Flags: W
HStem: 176 3.125<12.126 153.126> 518.125 5.625<12.126 153.126>
VStem: 12.126 141<146.849 550.401> 310.626 138<144.512 180 516 551.531>
LayerCount: 2
Back
Fore
SplineSet
209.000976562 -7.625 m 3
 65.7041015625 -7.625 11.7509765625 119.125 11.7509765625 179.125 c 0
 153.250976562 179.125 l 3
 153.250976562 174.125 163.000976562 134.135742188 209.000976562 133.625 c 0
 209.000976562 -7.625 l 3
209.000976562 704.875 m 3
 209.000976562 563.625 l 0
 163.000976562 563.114257812 153.250976562 523.125 153.250976562 518.125 c 3
 11.7509765625 518.125 l 0
 11.7509765625 578.125 65.7041015625 704.875 209.000976562 704.875 c 3
153.125976562 523.75 m 1
 153.125976562 176 l 1
 12.1259765625 176 l 1
 12.1259765625 523.75 l 1
 153.125976562 523.75 l 1
263.625976562 132.333007812 m 17
 263.625976562 132.333007812 295.5703125 140.889648438 305.625976562 164 c 0
 310.979492188 176.302734375 310.625976562 187 310.625976562 201 c 26
 310.625976562 231 l 25
 448.625976562 180 l 17
 448.625976562 84.48046875 356.334960938 -7.6669921875 263.625976562 -7.6669921875 c 9
 263.625976562 132.333007812 l 17
263.625976562 563.666992188 m 9
 263.625976562 704.666992188 l 17
 356.334960938 704.666992188 448.625976562 611.51953125 448.625976562 516 c 9
 310.625976562 465 l 25
 310.625976562 495 l 26
 310.625976562 509 310.979492188 519.697265625 305.625976562 532 c 0
 295.5703125 555.110351562 263.625976562 563.666992188 263.625976562 563.666992188 c 9
EndSplineSet
Validated: 37
EndChar

StartChar: NameMe.259
Encoding: 258 -1 14
Width: 1024
VWidth: 0
Flags: W
HStem: -7.5 197.25
VStem: 267.5 196.75
LayerCount: 2
Back
Fore
SplineSet
464.25 189.75 m 3
 464.25 46.453125 327.5 -7.5 267.5 -7.5 c 4
 267.5 134 l 7
 272.5 134 322.489257812 143.75 323 189.75 c 0
 464.25 189.75 l 3
EndSplineSet
Validated: 1
EndChar

StartChar: NameMe.260
Encoding: 259 -1 17
Width: 1024
VWidth: 0
Flags: W
HStem: -7.5 246.5<323 355.178>
VStem: 323 141<147.192 239>
LayerCount: 2
Back
Fore
SplineSet
464.25 189.75 m 1
 464.25 51.453125 337.5 -7.5 277.5 -7.5 c 1
 277.5 134 l 1
 282.5 134 322.489257812 143.75 323 189.75 c 2
 323 239 l 1
 464 239 l 1
 464 189.75 l 1
 464.25 189.75 l 1
EndSplineSet
Validated: 1
EndChar

StartChar: H
Encoding: 72 72 21
Width: 501
VWidth: 0
Flags: W
HStem: 0 21G<39 180 293 434> 283 138<163 209 264 310> 680 20G<39 180 293 434>
VStem: 39 141<0 700> 163 46<283 421> 264 46<283 421> 293 141<0 700>
LayerCount: 2
Back
SplineSet
54.5830078125 698.9296875 m 1
 54.5830078125 467.530273438 54.8720703125 235.661132812 54.8720703125 4.59375 c 1
 100.272460938 4.59375 146.000976562 4.8798828125 191.174804688 4.8798828125 c 1
 191.174804688 282.04296875 l 1
 191.4765625 282.344726562 192.294921875 283.163085938 192.596679688 283.46484375 c 1
 201.317382812 283.46484375 210.407226562 283.75390625 218.892578125 283.75390625 c 1
 218.892578125 329.154296875 218.607421875 374.8828125 218.607421875 420.056640625 c 1
 192.596679688 420.056640625 l 1
 192.294921875 420.358398438 191.4765625 421.176757812 191.174804688 421.478515625 c 1
 191.174804688 513.915039062 190.885742188 606.729492188 190.885742188 698.9296875 c 1
 54.5830078125 698.9296875 l 1
53.1611328125 700.350585938 m 1
 53.1611328125 701.772460938 l 1
 192.596679688 701.772460938 l 1
 192.8984375 701.470703125 193.716796875 700.65234375 194.017578125 700.350585938 c 1
 194.017578125 423.18359375 l 1
 202.502929688 423.18359375 211.592773438 422.899414062 220.313476562 422.899414062 c 1
 220.615234375 422.598632812 221.43359375 421.780273438 221.735351562 421.478515625 c 1
 221.735351562 282.04296875 l 1
 221.43359375 281.741210938 220.615234375 280.922851562 220.313476562 280.622070312 c 1
 194.301757812 280.622070312 l 1
 194.301757812 188.41796875 194.017578125 95.609375 194.017578125 3.171875 c 1
 193.716796875 2.8701171875 192.8984375 2.0517578125 192.596679688 1.7509765625 c 1
 53.1611328125 1.7509765625 l 1
 52.859375 2.0517578125 52.041015625 2.8701171875 51.740234375 3.171875 c 1
 51.740234375 700.350585938 l 1
 53.1611328125 700.350585938 l 1
311.708007812 698.502929688 m 1
 311.708007812 421.478515625 l 1
 311.40625 421.176757812 310.587890625 420.358398438 310.286132812 420.056640625 c 1
 301.418945312 420.056640625 292.196289062 419.767578125 283.563476562 419.767578125 c 1
 283.563476562 374.3671875 283.84765625 328.638671875 283.84765625 283.46484375 c 1
 310.286132812 283.46484375 l 1
 310.587890625 283.163085938 311.40625 282.344726562 311.708007812 282.04296875 c 1
 311.708007812 189.606445312 311.997070312 96.796875 311.997070312 4.59375 c 1
 357.397460938 4.59375 403.125976562 4.87890625 448.299804688 4.87890625 c 1
 448.299804688 236.040039062 448.010742188 467.576171875 448.010742188 698.502929688 c 1
 311.708007812 698.502929688 l 1
310.286132812 699.923828125 m 1
 310.286132812 701.345703125 l 1
 449.721679688 701.345703125 l 1
 450.0234375 701.043945312 450.841796875 700.225585938 451.142578125 699.923828125 c 1
 451.142578125 3.171875 l 1
 450.841796875 2.8701171875 450.0234375 2.0517578125 449.721679688 1.7509765625 c 1
 310.286132812 1.7509765625 l 1
 309.984375 2.0517578125 309.166015625 2.8701171875 308.865234375 3.171875 c 1
 308.865234375 280.334960938 l 1
 300.232421875 280.334960938 291.009765625 280.622070312 282.142578125 280.622070312 c 1
 281.840820312 280.922851562 281.022460938 281.741210938 280.720703125 282.04296875 c 1
 280.720703125 421.478515625 l 1
 281.022460938 421.780273438 281.840820312 422.598632812 282.142578125 422.899414062 c 1
 308.581054688 422.899414062 l 1
 308.581054688 514.958007812 308.865234375 607.62890625 308.865234375 699.923828125 c 1
 310.286132812 699.923828125 l 1
EndSplineSet
Fore
SplineSet
310 421 m 1xe4
 310 283 l 1
 264 283 l 1
 264 421 l 1
 310 421 l 1xe4
209 421 m 5xe8
 209 283 l 5
 163 283 l 5
 163 421 l 5
 209 421 l 5xe8
EndSplineSet
Refer: 2 -1 N 1 0 0 1 249 0 2
Refer: 2 -1 S 1 0 0 1 -5 0 2
Validated: 5
EndChar

StartChar: Q
Encoding: 81 81 22
Width: 602
VWidth: 0
Flags: W
HStem: -7.5 197.25 185 10.1625G<12.375 153.375 319.375 460.375> 514.072 9.67858G<12.375 153.375 319.375 460.375>
VStem: 12.125 196.75 12.375 141<185 523.75> 263.875 196.75 319.375 141<185 523.75>
LayerCount: 2
Back
Fore
SplineSet
330.1875 65.9267578125 m 1x20
 440.1875 149.926757812 l 1
 506.59375 51.6318359375 l 1
 397.796875 -29.3681640625 l 5
 330.1875 65.9267578125 l 1x20
EndSplineSet
Refer: 13 -1 N -1 0 0 1 477.375 0 2
Refer: 13 -1 N 1 0 0 1 -4.625 0 2
Validated: 21
EndChar

StartChar: G
Encoding: 71 71 23
Width: 540
VWidth: 0
Flags: HW
HStem: -7.5 197.25 185 10.1625G<12.375 153.375> 514.072 9.67858G<12.375 153.375>
VStem: 12.125 196.75 12.375 141<185 523.75> 263.375 184.5<221 351> 305.875 142<146.863 221 516 551.531>
LayerCount: 2
Back
SplineSet
296.428710938 700.936523438 m 1
 299.290039062 700.936523438 l 1
 299.290039062 560.552734375 l 1
 296.428710938 560.552734375 l 1
 296.428710938 700.936523438 l 1
297.365234375 559.422851562 m 1
 298.466796875 562.064453125 l 1025
297.943359375 699.498046875 m 1
 297.916015625 702.359375 l 1025
480.163085938 132.150390625 m 1
 477.528320312 133.267578125 l 1
 484.30078125 149.231445312 487.827148438 166.385742188 487.8984375 183.727539062 c 1
 490.759765625 183.715820312 l 1
 490.6875 165.993164062 487.083984375 148.463867188 480.163085938 132.150390625 c 1
490.331054688 183.622070312 m 1
 487.469726562 183.622070312 l 1
 487.469726562 237.333984375 487.18359375 291.424804688 487.18359375 344.8984375 c 1
 424.591796875 344.8984375 361.645507812 344.612304688 299.290039062 344.612304688 c 1
 299.290039062 302.77734375 299.590820312 260.564453125 299.590820312 218.967773438 c 1
 348.946289062 218.967773438 l 1
 349.25 218.6640625 350.073242188 217.840820312 350.376953125 217.537109375 c 1
 350.376953125 215.390625 l 1
 347.515625 215.390625 l 1
 347.515625 215.819335938 l 1
 331.186523438 215.819335938 314.396484375 216.106445312 297.859375 216.106445312 c 1
 297.555664062 216.409179688 296.731445312 217.233398438 296.428710938 217.537109375 c 1
 296.428710938 346.329101562 l 1
 296.731445312 346.6328125 297.555664062 347.45703125 297.859375 347.760742188 c 1
 488.900390625 347.760742188 l 1
 489.204101562 347.45703125 490.028320312 346.6328125 490.331054688 346.329101562 c 1
 490.331054688 183.622070312 l 1
350.211914062 188.98828125 m 1
 347.350585938 189.059570312 l 1
 347.571289062 197.8828125 347.571289062 206.7109375 347.350585938 215.534179688 c 1
 350.211914062 215.60546875 l 1
 350.43359375 206.734375 350.43359375 197.859375 350.211914062 188.98828125 c 1
344.967773438 165.822265625 m 1
 342.401367188 167.08984375 l 1
 345.736328125 173.840820312 347.486328125 181.264648438 347.515625 188.793945312 c 1
 350.376953125 188.782226562 l 1
 350.346679688 180.817382812 348.49609375 172.963867188 344.967773438 165.822265625 c 1
328.952148438 149.450195312 m 1
 327.481445312 151.905273438 l 1
 333.712890625 155.635742188 338.943359375 160.828125 342.717773438 167.033203125 c 1
 345.163085938 165.545898438 l 1
 341.146484375 158.943359375 335.58203125 153.418945312 328.952148438 149.450195312 c 1
306.66015625 138.212890625 m 1
 305.498046875 140.828125 l 1
 312.8984375 144.1171875 320.075195312 147.890625 326.979492188 152.124023438 c 1
 328.475585938 149.684570312 l 1
 321.463867188 145.384765625 314.17578125 141.552734375 306.66015625 138.212890625 c 1
304.584960938 139.403320312 m 1
 307.446289062 139.403320312 l 1
 307.446289062 -0.9794921875 l 1
 304.584960938 -0.9794921875 l 1
 304.584960938 139.403320312 l 1
306.473632812 -1.9736328125 m 1
 306.500976562 0.8876953125 l 1
 330.91015625 0.6474609375 354.991210938 6.509765625 376.557617188 17.9443359375 c 1
 377.8984375 15.4150390625 l 1
 355.911132812 3.7578125 331.359375 -2.2197265625 306.473632812 -1.9736328125 c 1
377.752929688 14.9384765625 m 1
 376.401367188 17.4609375 l 1
 400.508789062 30.3818359375 421.891601562 47.8447265625 439.370117188 68.884765625 c 1
 441.571289062 67.0556640625 l 1
 423.857421875 45.7314453125 402.186523438 28.0341796875 377.752929688 14.9384765625 c 1
441.494140625 66.939453125 m 1
 439.28515625 68.759765625 l 1
 455.217773438 88.0947265625 468.06640625 109.77734375 477.373046875 133.037109375 c 1
 480.030273438 131.973632812 l 1
 470.61328125 108.439453125 457.614257812 86.5029296875 441.494140625 66.939453125 c 1
199.038085938 531.323242188 m 1025
212.578125 550.530273438 m 1
 214.083984375 548.096679688 l 1
 207.502929688 544.025390625 202.168945312 538.220703125 198.668945312 531.319335938 c 1025
235.389648438 562.083007812 m 1
 236.489257812 559.440429688 l 1
 228.845703125 556.260742188 221.474609375 552.461914062 214.448242188 548.084960938 c 1
 212.934570312 550.514648438 l 1
 220.09375 554.973632812 227.602539062 558.842773438 235.389648438 562.083007812 c 1
237.040039062 560.552734375 m 1
 234.178710938 560.552734375 l 1
 234.178710938 700.936523438 l 1
 237.040039062 700.936523438 l 1
 237.040039062 560.552734375 l 1
235.997070312 702.359375 m 1
 235.96875 699.498046875 l 1025
235.983398438 0.8876953125 m 1
 236.01171875 -1.9736328125 l 1025
237.040039062 -0.9794921875 m 1
 234.178710938 -0.9794921875 l 1
 234.178710938 139.403320312 l 1
 237.040039062 139.403320312 l 1
 237.040039062 -0.9794921875 l 1
212.934570312 149.44140625 m 1
 214.448242188 151.87109375 l 1
 221.474609375 147.494140625 228.845703125 143.696289062 236.489257812 140.515625 c 1
 235.389648438 137.873046875 l 1
 227.602539062 141.114257812 220.09375 144.982421875 212.934570312 149.44140625 c 1
198.668945312 168.63671875 m 1
 202.168945312 161.735351562 207.502929688 155.9296875 214.083984375 151.859375 c 1
 212.578125 149.42578125 l 1025
199.038085938 169.0625 m 1025
EndSplineSet
Fore
SplineSet
448.875 351 m 25x24
 448.875 174 l 18x22
 448.875 92.708984375 345.875 -5.6484375 264.375 -7 c 9x24
 263.875 133.671875 l 17
 269.875 133.671875 306.875 153.104492188 306.875 188 c 10
 306.875 221 l 25x22
 263.875 221 l 25
 263.875 351 l 25
 448.875 351 l 25x24
263.875 563.666992188 m 9
 263.875 704.666992188 l 17
 356.583984375 704.666992188 448.875 611.51953125 448.875 516 c 9
 310.875 465 l 25
 310.875 495 l 26
 310.875 509 311.228515625 519.697265625 305.875 532 c 0
 295.819335938 555.110351562 263.875 563.666992188 263.875 563.666992188 c 9
EndSplineSet
Refer: 13 -1 N -1 0 0 1 477.375 0 2
Validated: 53
EndChar

StartChar: S
Encoding: 83 83 24
Width: 503
VWidth: 0
Flags: W
HStem: 0 21G<263.854 307.854> 0 21G<263.854 307.854> 680.917 19.75G<183.354 208.854 263.771 316.42>
VStem: 35.8545 135<463.203 554.697> 327.854 132<161.573 263.302>
LayerCount: 2
Back
Fore
SplineSet
208.854492188 0 m 0x78
 97.6826171875 -0.1220703125 16.91796875 115.756835938 17 184.685546875 c 0
 152.672851562 210.223632812 l 0
 153.055664062 153.28125 209.876953125 131.092773438 208.854492188 131.533203125 c 0
 208.854492188 0 l 0x78
263.771484375 700.916992188 m 0
 369.068359375 700.916992188 442.854492188 586 442.854492188 526 c 0
 307.854492188 502 l 0
 307.854492188 554 262.771484375 567.15625 263.771484375 566.666992188 c 0
 263.771484375 700.916992188 l 0
208.854492188 700.666992188 m 9
 208.854492188 565.666992188 l 17
 187.854492188 560 170.854492188 534 170.854492188 510 c 3
 170.854492188 437 274.715820312 435.83984375 341.854492188 396 c 0
 403.155273438 359.624023438 459.854492188 320 459.854492188 214 c 3
 459.854492188 102 351.854492188 1 263.854492188 0 c 9xb8
 263.854492188 132 l 17
 289.854492188 142 327.854492188 172 327.854492188 210 c 27
 327.854492188 291 219.528320312 301.077148438 159.854492188 330 c 0
 88.79296875 364.442382812 35.8544921875 403 35.8544921875 508 c 3
 35.8544921875 653 157.854492188 700 208.854492188 700.666992188 c 9
EndSplineSet
Validated: 37
EndChar

StartChar: NameMe.261
Encoding: 261 -1 25
Width: 677
VWidth: 0
Flags: W
LayerCount: 2
Back
Fore
SplineSet
297 563.666992188 m 21
 297 563.666992188 328.944335938 555.110351562 339 532 c 4
 344.353030657 519.697439011 344 509 344 495 c 30
 344 465 l 29
 482 516 l 21
 482 611.519863045 389.708699211 704.666992188 297 704.666992188 c 13
 297 563.666992188 l 21
EndSplineSet
Validated: 41
EndChar

StartChar: V
Encoding: 86 86 26
Width: 432
VWidth: 0
Flags: HW
HStem: 0 21G<121.544 180.978> 0 21G<121.544 180.978> 680.667 20G<-75.6557 74.1823 234.408 384.344>
LayerCount: 2
Back
SplineSet
126.334960938 -1.4990234375 m 2
 126.334960938 1.1142578125 173.008789062 -0.0751953125 175.26171875 -0.0751953125 c 1
 220.99609375 156.604492188 l 1
 63.734375 695.724609375 l 1
 -75.5908203125 695.724609375 l 1
 127.34375 0.130859375 l 0
 126.334960938 -1.4990234375 l 2
126.334960938 -1.4990234375 m 1
 124.967773438 -1.8984375 l 1
 -79.3896484375 698.57421875 l 1
 65.87109375 698.57421875 l 1
 223.962890625 156.604492188 l 1
 177.3984375 -2.923828125 l 1
 126.334960938 -2.923828125 l 1
 126.334960938 -1.4990234375 l 1
184.875976562 515.54296875 m 1
 183.508789062 515.942382812 l 1
 236.793945312 698.57421875 l 1
 382.0546875 698.57421875 l 1
 263.71484375 292.345703125 l 1
 248.759765625 292.345703125 l 1
 183.508789062 515.142578125 l 1
 184.875976562 515.54296875 l 1
184.875976562 515.54296875 m 1
 186.243164062 515.943359375 l 1
 250.89453125 295.194335938 l 1
 261.578125 295.194335938 l 1
 378.2578125 695.724609375 l 1
 238.930664062 695.724609375 l 1
 186.243164062 515.14453125 l 1
 184.875976562 515.54296875 l 1
EndSplineSet
Fore
SplineSet
380.34375 699.6875 m 5x20
 340.006835938 569.13671875 298.73046875 429.923828125 257.34375 289.6875 c 5
 247.34375 289.6875 l 5
 180.939453125 513.6875 l 5
 236.34375 700.354492188 l 5
 380.34375 699.6875 l 5x20
-75.65625 700 m 1
 68.34375 700.666992188 l 1
 226.748046875 158 l 1
 174.34375 0 l 1
 127.34375 0 l 1xa0
 -75.65625 700 l 1
EndSplineSet
Validated: 1
EndChar

StartChar: W
Encoding: 87 87 27
Width: 790
VWidth: 0
Flags: HW
HStem: 0 21G<247.2 306.633 477.2 536.633> 0 21G<247.2 306.633 477.2 536.633> 680.667 20G<50 199.838 280 429.838 590.064 740>
LayerCount: 2
Back
Fore
SplineSet
740 700 m 1x20
 617 290 l 1
 607 290 l 1
 540.595703125 514 l 1
 596 700.666992188 l 1
 740 700 l 1x20
280 701 m 1
 424 700.666992188 l 1
 582.404296875 158 l 1
 530 0 l 1
 483 0 l 1xa0
 280 701 l 1
67 700 m 5
 211 700.666992188 l 5
 369.404296875 158 l 5
 317 0 l 5
 270 0 l 5
 67 700 l 5
EndSplineSet
Validated: 1
EndChar

StartChar: NameMe.262
Encoding: 262 -1 28
Width: 292
VWidth: 0
Flags: W
HStem: 398 141<29 259>
VStem: 29 230<398 539>
LayerCount: 2
Back
Fore
SplineSet
259 539 m 1
 259 398 l 1
 29 398 l 1
 29 539 l 1
 259 539 l 1
EndSplineSet
Validated: 1
EndChar

StartChar: N
Encoding: 78 78 29
Width: 599
VWidth: 0
Flags: HW
HStem: 0 21G<128.77 269.803 471.387 549.77> 0 21G<128.77 269.803 471.387 549.77> 680.667 20.333G<128.77 250.351 404.716 545.77>
VStem: 128.77 141<0 244> 404.365 141.404<550 701>
LayerCount: 2
Back
SplineSet
130.987304688 625.6796875 m 1
 129.575195312 625.6796875 l 1
 129.575195312 698.669921875 l 1
 251.677734375 698.669921875 l 1
 546.197265625 170.317382812 l 1
 546.197265625 3.357421875 l 1
 476.190429688 3.357421875 l 1
 129.75390625 624.9921875 l 1
 130.987304688 625.6796875 l 1
130.987304688 625.6796875 m 1
 132.220703125 626.3671875 l 1
 477.848632812 6.181640625 l 1
 543.374023438 6.181640625 l 1
 543.374023438 169.583007812 l 1
 250.01953125 695.845703125 l 1
 132.399414062 695.845703125 l 1
 132.399414062 625.6796875 l 1
 130.987304688 625.6796875 l 1
132.399414062 6.181640625 m 1
 268.072265625 6.181640625 l 1
 268.072265625 245.821289062 l 1
 138.627929688 478.147460938 l 1
 132.399414062 478.147460938 l 1
 132.399414062 6.181640625 l 1
130.987304688 4.76953125 m 1
 129.575195312 4.76953125 l 1
 129.575195312 480.970703125 l 1
 140.287109375 480.970703125 l 1
 270.896484375 246.5546875 l 1
 270.896484375 3.357421875 l 1
 130.987304688 3.357421875 l 1
 130.987304688 4.76953125 l 1
543.374023438 695.845703125 m 1
 407.700195312 695.845703125 l 1
 407.700195312 549.809570312 l 1
 537.14453125 317.90625 l 1
 543.374023438 317.90625 l 1
 543.374023438 695.845703125 l 1
544.786132812 697.2578125 m 1
 546.197265625 697.2578125 l 1
 546.197265625 315.083007812 l 1
 535.486328125 315.083007812 l 1
 404.875976562 549.075195312 l 1
 404.875976562 698.669921875 l 1
 544.786132812 698.669921875 l 1
 544.786132812 697.2578125 l 1
EndSplineSet
Fore
SplineSet
73 697.666992188 m 1xb8
 188 697.666992188 l 1
 490.298828125 167 l 1
 490 -3 l 1
 423 -3 l 5
 73 619 l 1
 73 697.666992188 l 1xb8
490 698 m 1
 490 293 l 1
 482 293 l 1
 348.595703125 530 l 1
 349 698 l 1
 490 698 l 1
73 -3 m 1
 73 491 l 1
 81 491 l 1
 214.404296875 254 l 1
 214 -3 l 1
 73 -3 l 1
EndSplineSet
Validated: 1
EndChar

StartChar: one
Encoding: 49 49 30
Width: 311
VWidth: 0
Flags: W
HStem: -0.333008 21G<101 228> 680.667 20G<81.0488 106 101 228>
VStem: 45.4688 60.5312<499 645> 101 127<-0.333008 700.667>
LayerCount: 2
Back
Fore
SplineSet
106 700.666992188 m 25xe0
 106 499 l 1xe0
 101 499 l 1xd0
 45.46875 444 l 1
 45.46875 645 l 1xe0
 101 700.666992188 l 1xd0
 106 700.666992188 l 25xe0
EndSplineSet
Refer: 31 -1 N 1 0 0 1 60 -0.333008 2
Validated: 5
EndChar

StartChar: _number_element
Encoding: 263 -1 31
Width: 221
VWidth: 0
Flags: W
HStem: 0 21G<41 168> 681 20G<41 168>
VStem: 41 127<0 701>
LayerCount: 2
Back
Fore
SplineSet
41 701 m 5
 168 701 l 5
 168 0 l 5
 41 0 l 5
 41 701 l 5
EndSplineSet
Validated: 1
EndChar

StartChar: two
Encoding: 50 50 32
Width: 515
VWidth: 0
Flags: HW
HStem: 0 127<62 463>
LayerCount: 2
Back
Fore
SplineSet
264 578 m 9
 264 704 l 17
 424 708 471.205078125 574.002929688 472 500 c 0
 473.150390625 392.861328125 411 364 352 319 c 0
 280.801757812 264.696289062 247 235 210 186 c 9
 70 186 l 17
 135 306 232 363 262 388 c 0
 305.51171875 424.259765625 353.097607375 437.998502538 354 500 c 0
 354.7421875 550.994140625 320 576 264 578 c 9
209.083007812 702.916992188 m 0
 113.786132812 690.916992188 52 608 43 524 c 0
 161 499 l 0
 161 561.030273438 208.552734375 576.678710938 209.092773438 576.678710938 c 0
 209.096679688 576.678710938 209.09765625 576.677734375 209.09765625 576.676757812 c 0
 209.09765625 576.674804688 209.092773438 576.671875 209.083007812 576.666992188 c 0
 209.083007812 702.916992188 l 0
464 127 m 5
 464 0 l 5
 63 0 l 5
 63 127 l 5
 464 127 l 5
EndSplineSet
Validated: 37
EndChar

StartChar: NameMe.264
Encoding: 264 -1 33
Width: 442
VWidth: 0
Flags: W
HStem: 0 127<20 421>
LayerCount: 2
Back
Fore
SplineSet
421 127 m 5
 421 0 l 5
 20 0 l 5
 20 127 l 5
 421 127 l 5
EndSplineSet
Validated: 1
EndChar

StartChar: four
Encoding: 52 52 34
Width: 527
VWidth: 0
Flags: W
HStem: 0 21G<295 422> 145 127<311.5 476> 681 20G<295 422>
VStem: 48 190<145 272> 295 127<0 701>
LayerCount: 2
Back
SplineSet
298.505859375 697.932617188 m 1
 298.16015625 0.9658203125 l 1
 415.9921875 0.9658203125 l 1
 415.9921875 147.696289062 l 1
 473.205078125 147.696289062 l 1
 473.205078125 269.419921875 l 1
 415.9921875 269.419921875 l 1
 415.9921875 697.932617188 l 1
 298.505859375 697.932617188 l 1
296.944335938 699.149414062 m 1
 296.944335938 700.365234375 l 1
 418.424804688 700.365234375 l 1
 418.424804688 271.852539062 l 1
 475.63671875 271.852539062 l 1
 475.63671875 145.263671875 l 1
 418.424804688 145.263671875 l 1
 418.424804688 -1.466796875 l 1
 295.728515625 -1.466796875 l 1
 295.728515625 699.149414062 l 1
 296.944335938 699.149414062 l 1
235.450195312 147.696289062 m 1
 235.791015625 269.419921875 l 1
 187.41015625 269.419921875 l 1
 235.791015625 352.6953125 l 1
 235.791015625 589.158203125 l 1
 50.626953125 270.30859375 l 1
 50.626953125 147.696289062 l 1
 235.450195312 147.696289062 l 1
237.006835938 146.479492188 m 1
 237.006835938 145.263671875 l 1
 48.1943359375 145.263671875 l 1
 48.1943359375 270.963867188 l 1
 238.22265625 598.19140625 l 1
 238.22265625 352.040039062 l 1
 191.63671875 271.852539062 l 1
 238.22265625 271.852539062 l 1
 238.22265625 146.479492188 l 1
 237.006835938 146.479492188 l 1
EndSplineSet
Fore
SplineSet
238 272 m 25
 238 144.666992188 l 25
 48 145 l 25
 48 272 l 25
 238 598 l 25
 238 351 l 25
 192 272 l 25
 238 272 l 25
EndSplineSet
Refer: 33 -1 N 0.410224 0 0 1 303.296 145 2
Refer: 31 -1 N 1 0 0 1 254 0 2
Validated: 5
EndChar

StartChar: X
Encoding: 88 88 35
Width: 453
VWidth: 0
Flags: W
HStem: -0.666992 21G<43 196.365 271.292 423> -0.666992 21G<43 196.365 271.292 423> 680 20.667G<43 196.651 261.578 413>
LayerCount: 2
Back
SplineSet
235.45703125 110.884765625 m 1
 246.0078125 74.7294921875 256.869140625 38.2587890625 267.350585938 2.341796875 c 1
 312.533203125 2.341796875 358.315429688 2.572265625 403.087890625 2.572265625 c 1
 302.219726562 348.831054688 l 1
 302.219726562 349.625 l 1
 335.834960938 465.161132812 369.4140625 581.413085938 402.911132812 696.541992188 c 1
 357.668945312 696.541992188 312.069335938 696.333984375 267.072265625 696.333984375 c 1
 235.45703125 587.999023438 l 1025
202.118164062 697.962890625 m 0
 202.118164062 695.607421875 74.37109375 696.310546875 64.6708984375 696.310546875 c 1
 165.5390625 349.625 l 1
 165.5390625 348.831054688 l 1
 131.923828125 233.4375 98.3447265625 117.327148438 64.8486328125 2.341796875 c 1
 110.233398438 2.341796875 155.97265625 2.5498046875 201.11328125 2.5498046875 c 1
 232.728515625 110.884765625 l 1025
406.413085938 697.56640625 m 1
 305.068359375 349.241210938 l 1
 406.413085938 1.318359375 l 1025
61.345703125 1.318359375 m 1
 162.69140625 349.215820312 l 1
 61.345703125 697.56640625 l 1025
202.118164062 -0.5 m 1
 266.067382812 -0.5 l 1
 265.7265625 -0.244140625 266.067382812 -0.5 265.7265625 -0.244140625 c 0
 264.703125 0.5234375 l 1
 234.166015625 105.1640625 l 1
 224.198242188 71.0078125 213.629882812 35.296875 203.482421875 0.5234375 c 1
 203.141601562 0.267578125 203.482421875 0.5234375 203.141601562 0.267578125 c 0
 202.118164062 -0.5 l 1
266.067382812 699.383789062 m 1
 202.118164062 699.383789062 l 1
 202.118164062 697.962890625 l 1
 203.482421875 698.361328125 l 1
 234.01953125 593.719726562 l 1
 243.987304688 627.875976562 254.555664062 663.587890625 264.703125 698.361328125 c 1
 265.043945312 698.6171875 264.703125 698.361328125 265.043945312 698.6171875 c 0
 266.067382812 699.383789062 l 1
EndSplineSet
Fore
SplineSet
43 -0.6669921875 m 1xa0
 268 700 l 1
 413 700 l 1
 190 -0.6669921875 l 1
 43 -0.6669921875 l 1xa0
43 700.666992188 m 1
 190 700.666992188 l 1
 423 0 l 1
 278 0 l 1
 43 700.666992188 l 1
EndSplineSet
Validated: 5
EndChar

StartChar: Y
Encoding: 89 89 36
Width: 536
VWidth: 0
Flags: HW
HStem: 0 21G<181 326.696> 0 21G<181 326.696> 680 20.667G<50 202.794 335.059 486>
VStem: 181 145.695<0 276.55>
LayerCount: 2
Back
SplineSet
317.939453125 2.4541015625 m 1
 317.939453125 252.942382812 l 1
 193.298828125 699.001953125 l 1
 56.2958984375 699.001953125 l 1
 180.827148438 253.333007812 l 1
 180.827148438 2.4541015625 l 1
 317.939453125 2.4541015625 l 1
319.366210938 1.02734375 m 1
 319.366210938 -0.3994140625 l 1
 177.973632812 -0.3994140625 l 1
 177.973632812 252.942382812 l 1
 52.5361328125 701.85546875 l 1
 195.46484375 701.85546875 l 1
 320.79296875 253.333007812 l 1
 320.79296875 1.02734375 l 1
 319.366210938 1.02734375 l 1
373.295898438 320.486328125 m 1
 479.280273438 699.001953125 l 1
 342.275390625 699.001953125 l 1
 304.583007812 565.169921875 l 1
 373.295898438 320.486328125 l 1
373.297851562 315.202148438 m 1
 371.924804688 314.81640625 l 1
 301.618164062 565.171875 l 1
 340.115234375 701.85546875 l 1
 483.041992188 701.85546875 l 1
 374.671875 314.817382812 l 1
 373.297851562 315.202148438 l 1
EndSplineSet
Fore
SplineSet
293 565.333007812 m 1x30
 332 700 l 1
 477 700 l 1
 369 312.333007812 l 1
 293 565.333007812 l 1x30
50 700.666992188 m 1
 197 700.666992188 l 1
 326.700195312 253 l 0
 326.6953125 0 l 1
 181 0 l 1xb0
 181 252 l 0
 50 700.666992188 l 1
EndSplineSet
Validated: 1
EndChar

StartChar: Z
Encoding: 90 90 37
Width: 433
VWidth: 0
Flags: W
VStem: 50 333.5
LayerCount: 2
Back
SplineSet
386.372070312 559.251953125 m 1
 387.682617188 558.6953125 l 1
 210.364257812 141.549804688 l 1
 387.795898438 141.549804688 l 1
 387.795898438 -1.005859375 l 1
 54.2626953125 -1.005859375 l 1
 54.2626953125 140.416015625 l 1
 231.694335938 557.828125 l 1
 54.2626953125 557.828125 l 1
 54.2626953125 700.383789062 l 1
 387.795898438 700.383789062 l 1
 387.795898438 559.251953125 l 1
 386.372070312 559.251953125 l 1
386.372070312 559.251953125 m 1
 384.948242188 559.251953125 l 1
 384.948242188 697.53515625 l 1
 57.1103515625 697.53515625 l 1
 57.1103515625 560.676757812 l 1
 236 560.676757812 l 1
 57.1103515625 139.8359375 l 1
 57.1103515625 1.841796875 l 1
 384.948242188 1.841796875 l 1
 384.948242188 138.702148438 l 1
 206.05859375 138.702148438 l 1
 385.061523438 559.809570312 l 1
 386.372070312 559.251953125 l 1
EndSplineSet
Fore
SplineSet
198 140.671875 m 17
 383.5 564 l 1
 383.5 701 l 1
 50 700.666992188 l 1
 50 564.333984375 l 1
 235.963867188 564.333984375 l 1
 50 140.671875 l 1
 50 0 l 1
 383.5 0 l 1
 383.5 141 l 1
 198 140.671875 l 17
EndSplineSet
Validated: 9
EndChar

StartChar: equal
Encoding: 61 61 39
Width: 396
VWidth: 0
Flags: W
HStem: 200 127<30 371> 380 127<30 371>
VStem: 30 341<200 327 380 507>
LayerCount: 2
Back
Fore
SplineSet
371 507 m 5
 371 380 l 5
 30 380 l 5
 30 507 l 5
 371 507 l 5
371 327 m 5
 371 200 l 5
 30 200 l 5
 30 327 l 5
 371 327 l 5
EndSplineSet
Validated: 1
EndChar

StartChar: at
Encoding: 64 64 40
Width: 886
VWidth: 0
Flags: W
HStem: -21.8027 97.0781<322.569 606.911> 161.105 402.942<357.591 466.707> 653.175 104.235<361.338 588.408>
VStem: 43.1973 103.562<242.676 457.792> 730.55 109.8<341.182 534.134>
LayerCount: 2
Back
Fore
SplineSet
704.372070312 142.10546875 m 9
 748.787109375 64.482421875 l 17
 673.9375 2.107421875 565.752993231 -21.1281950399 437.407226562 -21.802734375 c 0
 200.125 -23.0498046875 43.197265625 132.412109375 43.197265625 354.467773438 c 0
 43.197265625 580.837890625 234.065429688 757.41015625 489.802734375 757.41015625 c 0
 663.0703125 757.41015625 840.349609375 631.725585938 840.349609375 457.178710938 c 0
 840.349609375 245.934570312 695.728515625 155.319335938 568.39453125 161.10546875 c 0
 524.538085938 163.09765625 503.525390625 182.3125 493.544921875 206.014648438 c 1
 475.565429688 184.3125 438.6953125 161.10546875 380.04296875 161.10546875 c 0
 298.671875 161.10546875 232.137695312 222.069335938 231.5703125 314.547851562 c 0
 230.491210938 490.446289062 358.815429688 564.047851562 444.892578125 564.047851562 c 0
 509.350585938 564.047851562 530.969726562 537.849609375 545.940429688 521.6328125 c 9
 553.91015625 549.077148438 l 25
 649.482421875 549.077148438 l 25
 588.107421875 330.3203125 l 26
 583.1171875 310.360351562 573.451171875 265.790039062 594.592773438 264.677734375 c 0
 665.700195312 260.934570312 730.549804688 320.78515625 730.549804688 457.177734375 c 0
 730.549804688 575.364257812 589.725585938 653.174804688 491.049804688 653.174804688 c 0
 285.232421875 653.174804688 146.759765625 510.365234375 146.759765625 351.97265625 c 0
 146.759765625 186.71875 271.044921875 75.275390625 437.407226562 75.275390625 c 0
 579.622070312 75.275390625 658.21484375 112.008789062 704.372070312 142.10546875 c 9
EndSplineSet
Validated: 33
EndChar

StartChar: question
Encoding: 63 63 41
Width: 440
VWidth: 0
Flags: W
HStem: -22 150.62<124.411 231.284> 580 120<160 276>
VStem: 41 119<495 580> 102.537 150.62<-0.127075 106.747> 115 129<166 305> 276 122<416 580>
LayerCount: 2
Back
SplineSet
244.517578125 305.7734375 m 1
 244.517578125 166.754882812 l 1
 114.020507812 166.754882812 l 1
 114.020507812 416.254882812 l 1
 266.052734375 416.254882812 l 1
 266.052734375 586.173828125 l 1
 160.958984375 586.173828125 l 1
 160.958984375 498.129882812 l 1
 39.8828125 498.129882812 l 1
 39.8828125 612.533203125 l 2
 39.8828125 625.430664062 42.8544921875 638.333007812 45.994140625 648.986328125 c 0
 49.8662109375 659.640625 55.3603515625 668.051757812 62.4267578125 675.342773438 c 0
 69.4912109375 682.634765625 78.1845703125 688.799804688 90.802734375 693.288085938 c 0
 103.422851562 697.77734375 120.020507812 700.576171875 136.508789062 700.576171875 c 2
 302.671875 700.576171875 l 2
 318.263671875 700.576171875 333.963867188 697.77734375 346.190429688 693.848632812 c 0
 358.4140625 689.922851562 367.220703125 683.754882812 374.510742188 677.026367188 c 0
 381.745117188 670.293945312 387.520507812 661.883789062 391.670898438 651.2265625 c 0
 395.819335938 640.012695312 398.401367188 626.551757812 398.401367188 612.533203125 c 2
 398.401367188 394.944335938 l 2
 398.401367188 381.483398438 395.427734375 368.588867188 392.288085938 357.373046875 c 0
 388.36328125 346.715820312 382.754882812 338.301757812 375.6875 331.013671875 c 0
 368.567382812 323.71875 359.987304688 317.5546875 347.537109375 313.065429688 c 0
 335.142578125 308.58203125 318.87890625 305.7734375 302.78515625 305.7734375 c 2
 244.517578125 305.7734375 l 1
118.39453125 114.543945312 m 0
 123.946289062 122.115234375 131.010742188 128.677734375 139.086914062 133.615234375 c 0
 147.1640625 138.543945312 156.19140625 141.909179688 165.669921875 143.3671875 c 0
 175.090820312 144.883789062 185.016601562 144.435546875 194.4375 142.19140625 c 0
 203.860351562 139.950195312 212.719726562 135.85546875 220.403320312 130.301757812 c 0
 228.0859375 124.803710938 234.591796875 117.798828125 239.526367188 109.778320312 c 0
 244.461914062 101.7578125 247.825195312 92.7841796875 249.284179688 83.251953125 c 0
 250.744140625 73.71875 250.29296875 63.625 248.106445312 54.318359375 c 0
 245.920898438 45.0634765625 241.993164062 36.4794921875 236.610351562 29.0234375 c 0
 231.171875 21.5625 224.2734375 15.1728515625 216.197265625 10.2900390625 c 0
 208.122070312 5.4130859375 198.869140625 2.0478515625 188.943359375 0.58984375 c 0
 178.9609375 -0.8681640625 168.360351562 -0.4189453125 158.771484375 1.822265625 c 0
 149.182617188 4.0107421875 140.657226562 8.05078125 133.311523438 13.3759765625 c 0
 125.908203125 18.7587890625 119.684570312 25.4873046875 114.916992188 33.45703125 c 0
 110.206054688 41.416015625 106.954101562 50.5556640625 105.55078125 60.08984375 c 0
 104.092773438 69.623046875 104.431640625 79.6083984375 106.6171875 88.919921875 c 0
 108.803710938 98.22265625 112.84375 106.916992188 118.39453125 114.543945312 c 0
EndSplineSet
Fore
SplineSet
102.537109375 53.3095703125 m 4xd4
 102.537109375 95.39453125 135.762695312 128.620117188 177.84765625 128.620117188 c 4
 219.932617188 128.620117188 253.157226562 95.39453125 253.157226562 53.3095703125 c 4
 253.157226562 11.224609375 219.932617188 -22 177.84765625 -22 c 4
 135.762695312 -22 102.537109375 11.224609375 102.537109375 53.3095703125 c 4xd4
160 495 m 25xe4
 41 495 l 1
 41 495 41 593 41 626 c 0xe4
 41 674.010742188 81.0537109375 699.686523438 124 700 c 2
 312 701.372070312 l 1
 374.5 701.372070312 398 659 398 622 c 1
 398 380 l 1
 398 332 353 305 313 305 c 1
 244 305 l 9
 244 166 l 25
 115 166 l 25
 115 416 l 25xcc
 276 416 l 25
 276 580 l 25
 160 580 l 25
 160 495 l 25xe4
EndSplineSet
Validated: 1
EndChar

StartChar: period
Encoding: 46 46 42
Width: 167
VWidth: 0
Flags: W
HStem: -22 150.62<24.4105 131.284>
VStem: 2.53711 150.62<-0.127075 106.747>
LayerCount: 2
Back
Fore
SplineSet
2.537109375 53.3095703125 m 4
 2.537109375 95.39453125 35.7626953125 128.620117188 77.84765625 128.620117188 c 4
 119.932617188 128.620117188 153.157226562 95.39453125 153.157226562 53.3095703125 c 4
 153.157226562 11.224609375 119.932617188 -22 77.84765625 -22 c 4
 35.7626953125 -22 2.537109375 11.224609375 2.537109375 53.3095703125 c 4
EndSplineSet
Validated: 1
EndChar

StartChar: colon
Encoding: 58 58 43
Width: 167
VWidth: 0
Flags: W
HStem: -5 150.62<24.4105 131.284> 285 150.62<24.4105 131.284>
VStem: 2.53711 150.62<16.8729 123.747 306.873 413.747>
LayerCount: 2
Back
Fore
SplineSet
2.537109375 360.309570312 m 4
 2.537109375 402.39453125 35.7626953125 435.620117188 77.84765625 435.620117188 c 4
 119.932617188 435.620117188 153.157226562 402.39453125 153.157226562 360.309570312 c 4
 153.157226562 318.224609375 119.932617188 285 77.84765625 285 c 4
 35.7626953125 285 2.537109375 318.224609375 2.537109375 360.309570312 c 4
2.537109375 70.3095703125 m 0
 2.537109375 112.39453125 35.7626953125 145.620117188 77.84765625 145.620117188 c 0
 119.932617188 145.620117188 153.157226562 112.39453125 153.157226562 70.3095703125 c 0
 153.157226562 28.224609375 119.932617188 -5 77.84765625 -5 c 0
 35.7626953125 -5 2.537109375 28.224609375 2.537109375 70.3095703125 c 0
EndSplineSet
Validated: 1
EndChar

StartChar: quotedbl
Encoding: 34 34 44
Width: 460
VWidth: 0
Flags: W
HStem: 465 271<72 199 252 379>
VStem: 72 127<465 736> 252 127<465 736>
LayerCount: 2
Back
Fore
SplineSet
379 465 m 1
 252 465 l 1
 252 736 l 1
 379 736 l 1
 379 465 l 1
199 465 m 5
 72 465 l 5
 72 736 l 5
 199 736 l 5
 199 465 l 5
EndSplineSet
Validated: 1
EndChar

StartChar: plus
Encoding: 43 43 45
Width: 464
VWidth: 0
Flags: W
HStem: 230 127<43 418>
VStem: 166 127<87 498>
LayerCount: 2
Back
Fore
SplineSet
293 87 m 1
 166 87 l 1
 166 498 l 1
 293 498 l 1
 293 87 l 1
418 357 m 5
 418 230 l 5
 43 230 l 5
 43 357 l 5
 418 357 l 5
EndSplineSet
Validated: 5
EndChar

StartChar: asterisk
Encoding: 42 42 46
Width: 460
VWidth: 0
Flags: HW
LayerCount: 2
Back
SplineSet
381.78125 165.001953125 m 5
 -29.7861328125 467.271484375 l 5
 27.2998046875 545.099609375 l 5
 438.8671875 242.831054688 l 5
 381.78125 165.001953125 l 5
35.21875 167.40234375 m 5
 -21.8671875 245.231445312 l 5
 389.700195312 547.5 l 5
 446.786132812 469.670898438 l 5
 35.21875 167.40234375 l 5
253.8203125 94.1796875 m 5
 157.299804688 94.1796875 l 5
 156.979492188 604.8203125 l 5
 253.5 604.8203125 l 5
 253.8203125 94.1796875 l 5
EndSplineSet
Fore
SplineSet
375.78125 156.001953125 m 1
 -36.7861328125 459.271484375 l 1
 33.2998046875 554.099609375 l 1
 444.8671875 251.831054688 l 1
 375.78125 156.001953125 l 1
41.21875 159.40234375 m 1
 -27.8671875 253.231445312 l 1
 383.700195312 555.5 l 1
 452.786132812 460.670898438 l 1
 41.21875 159.40234375 l 1
264.8203125 94.1796875 m 1
 147.299804688 94.1796875 l 5
 146.979492188 604.8203125 l 1
 263.5 604.8203125 l 1
 264.8203125 94.1796875 l 1
EndSplineSet
EndChar

StartChar: comma
Encoding: 44 44 47
Width: 460
VWidth: 0
Flags: W
HStem: -23 152<109 199>
VStem: 72 164
LayerCount: 2
Back
Fore
SplineSet
199 -23 m 5
 72 -23 l 5
 109 129 l 5
 236 129 l 5
 199 -23 l 5
EndSplineSet
Validated: 1
EndChar

StartChar: copyright
Encoding: 169 169 48
Width: 1024
VWidth: 0
Flags: W
HStem: -47.5596 92.7793<375.532 466.06 509.12 600.517> 109.555 128.058 234.529 6.59768G<342.442 436.747> 448.169 6.28351G<342.442 436.747> 636.22 90.7803<375.604 474 509 606.411>
VStem: 107.159 89.9004<226.398 447.647> 342.275 131.591 342.442 94.3043<234.529 454.452> 781.94 88.9004<229.715 448.932>
LayerCount: 2
Back
SplineSet
190.883789062 340.040039062 m 0
 190.883789062 507.075195312 324.212890625 642.649414062 489 642.649414062 c 0
 653.787109375 642.649414062 787.116210938 507.075195312 787.116210938 340.040039062 c 0
 787.116210938 173.004882812 653.787109375 37.4306640625 489 37.4306640625 c 0
 324.212890625 37.4306640625 190.883789062 173.004882812 190.883789062 340.040039062 c 0
106.799804688 339.040039062 m 4
 106.799804688 553.1875 277.734375 727.000976562 489 727.000976562 c 4
 700.265625 727.000976562 871.200195312 553.1875 871.200195312 339.040039062 c 0
 871.200195312 124.892578125 700.265625 -48.9208984375 489 -48.9208984375 c 0
 277.734375 -48.9208984375 106.799804688 124.892578125 106.799804688 339.040039062 c 4
464.913085938 1139.86328125 m 1
 464.602539062 1139.86328125 l 1025
515.774414062 1139.86328125 m 1
 515.463867188 1139.86328125 l 1025
EndSplineSet
Fore
SplineSet
508.940429688 44.2197265625 m 4x9c80
 509.120117188 -48.5595703125 l 5
 680.940429688 -42.7802734375 865.005004115 103.951903025 870.840820312 326.799804688 c 4
 877.605419669 585.114446745 658.940429688 725.219726562 509 726 c 5
 508.940429688 636.219726562 l 5
 639.581054688 635.139648438 785.90234375 513.166015625 781.940429688 332.219726562 c 4
 778.575195312 178.534179688 654.940429688 51.2197265625 508.940429688 44.2197265625 c 4x9c80
508.645507812 200.336914062 m 21
 508.645507812 200.336914062 530.01171875 205.891601562 536.737304688 220.89453125 c 4
 540.31640625 228.8828125 540.080078125 235.827148438 540.080078125 244.916015625 c 30
 540.080078125 264.392578125 l 29
 632.37890625 231.282226562 l 21
 632.37890625 169.26953125 570.65234375 108.797851562 508.645507812 108.797851562 c 13
 508.645507812 200.336914062 l 21
508.645507812 480.365234375 m 13
 508.645507812 571.90625 l 21
 570.65234375 571.90625 632.37890625 511.43359375 632.37890625 449.419921875 c 13
 540.080078125 416.309570312 l 29
 540.080078125 435.787109375 l 30
 540.080078125 444.875976562 540.31640625 451.821289062 536.737304688 459.807617188 c 4
 530.01171875 474.810546875 508.645507812 480.365234375 508.645507812 480.365234375 c 13
466.059570312 45.2197265625 m 4
 466.879882812 -47.5595703125 l 5
 288.059570312 -45.7802734375 108.678570632 123.9636603 107.159179688 327.799804688 c 4
 105.068932113 608.220066461 341.059570312 728.219726562 474 727 c 5
 474.059570312 636.219726562 l 5
 343.418945312 635.139648438 196.629882812 518.208984375 197.059570312 333.219726562 c 4
 197.416546537 179.534160284 320.059570312 52.2197265625 466.059570312 45.2197265625 c 4
EndSplineSet
Refer: 13 -1 S -0.668825 0 0 0.649218 653.446 114.424 2
Validated: 53
EndChar

StartChar: registered
Encoding: 174 174 49
Width: 1024
VWidth: 0
Flags: W
HStem: 354.448 41.751<176.208 238.427 257.804 318.977> 430.004 5.92454G<197.587 237.348> 430.568 5.92454G<281.62 317.151 281.62 317.151> 511.255 35.2651<253.139 273.229> 520.282 7.89939<253.139 297.411> 590.531 37.5221<253.139 273.097> 621.846 5.64242G<197.587 237.348> 662.149 40.8506<180.475 242 257.75 319.075>
VStem: 76.9219 40.4551<458.383 595.994> 197.587 39.7604<430.004 627.488> 281.056 35.8126<430.568 503.994 552.864 583.186> 380.573 40.0049<459.953 598.781>
LayerCount: 2
Back
Fore
SplineSet
257.723632812 395.749023438 m 4x81f0
 257.803710938 353.999023438 l 5
 335.123046875 356.599609375 417.952148438 422.62890625 420.578125 522.91015625 c 4
 423.622070312 639.15234375 325.223632812 702.19921875 257.75 702.55078125 c 5
 257.723632812 662.149414062 l 5
 316.51171875 661.663085938 382.356445312 606.775390625 380.573242188 525.349609375 c 4
 379.05859375 456.190429688 323.422851562 398.899414062 257.723632812 395.749023438 c 4x81f0
238.426757812 396.19921875 m 4
 238.795898438 354.448242188 l 5
 158.327148438 355.249023438 77.60546875 431.633789062 76.921875 523.360351562 c 4
 75.9814453125 649.549804688 182.176757812 703.548828125 242 703 c 5
 242.026367188 662.149414062 l 5
 183.23828125 661.663085938 117.18359375 609.044921875 117.376953125 525.798828125 c 4
 117.537109375 456.640625 172.7265625 399.349609375 238.426757812 396.19921875 c 4
EndSplineSet
Refer: 10 82 S 0.281989 0 0 0.282121 178.412 430.568 2
Validated: 37
EndChar

StartChar: a
Encoding: 97 97 50
Width: 483
VWidth: 0
Flags: W
HStem: 0.803711 106.69<179.612 215.266 263.972 298.729 409.862 433.472> 378.663 1.89355<301.627 408.043>
VStem: 301.627 107.192<97.2461 139.828 378.663 407.326>
LayerCount: 2
Back
SplineSet
215 517.6875 m 4
 215 411.139648438 l 4
 182.448242188 410.77734375 175.548828125 382.97265625 175.548828125 378.84765625 c 4
 65.8779296875 378.84765625 l 4
 65.8779296875 421.4296875 113.59765625 517.6875 215 517.6875 c 4
454.891601562 493.880859375 m 25
 456.831054688 0.001953125 l 25
 350.099609375 -0.484375 l 25
 350.099609375 44.634765625 l 17
 329.48828125 22.837890625 287.581054688 4.583984375 257.436523438 0.9716796875 c 9
 257.436523438 125.168945312 l 17
 314.68359375 151.8515625 336.635742188 193.697265625 336.515625 252.278320312 c 24
 336.635742188 307.40234375 296.248046875 360.465820312 257.436523438 368.712890625 c 9
 257.436523438 492.91015625 l 17
 292.104492188 487.453125 326.893554688 471.206054688 349.12890625 448.27734375 c 9
 350.099609375 493.880859375 l 25
 454.891601562 493.880859375 l 25
190 490 m 9
 190 366.772460938 l 17
 139.544921875 341.059570312 116.258789062 299.822265625 116.258789062 244.515625 c 24
 116.258789062 191.149414062 151.189453125 141.665039062 189.03125 129.049804688 c 9
 189.03125 3.8828125 l 17
 78.90234375 30.0810546875 10.4970703125 131.4765625 10.4970703125 250.336914062 c 24
 10.4970703125 367.2578125 92.486328125 473.50390625 190 490 c 9
EndSplineSet
Fore
SplineSet
216 409.735351562 m 9
 216 515.6875 l 17
 148.852539062 515.6875 82.0078125 449.3359375 82.0078125 380.26953125 c 9
 181.958984375 342.393554688 l 25
 181.958984375 364.084960938 l 26
 181.958984375 374.208007812 181.703125 381.943359375 185.580078125 390.838867188 c 0
 192.86328125 407.548828125 216 409.735351562 216 409.735351562 c 9
433.471679688 0.98828125 m 4
 433.471679688 107.537109375 l 4
 408.919921875 107.8984375 409.01953125 135.703125 409.01953125 139.828125 c 4
 301.284179688 139.828125 l 4
 301.284179688 97.24609375 332.068359375 0.98828125 433.471679688 0.98828125 c 4
63.078125 140.331054688 m 1
 174.813476562 140.331054688 l 1
 175.078125 155 174.403320312 166.557617188 184.078125 174 c 0
 197.078125 184 294.078125 205 302.078125 225 c 1
 302.078125 337 l 1
 285.078125 298 131.078125 263 102.078125 239 c 0
 66.791015625 209.796875 62.078125 179 63.078125 140.331054688 c 1
215.265625 1.4912109375 m 3
 215.265625 108.040039062 l 0
 182.713867188 108.401367188 174.813476562 136.206054688 174.813476562 140.331054688 c 0
 63.078125 140.331054688 l 0
 63.078125 97.7490234375 113.862304688 1.4912109375 215.265625 1.4912109375 c 3
263.971679688 0.8037109375 m 3
 362.4453125 0.8037109375 408.819335938 97.189453125 408.819335938 139.828125 c 0
 301.284179688 139.828125 l 3
 301.284179688 135.698242188 295.583007812 107.856445312 263.971679688 107.494140625 c 0
 263.971679688 0.8037109375 l 3
263.229492188 517.6875 m 0
 263.229492188 410.997070312 l 0
 294.83984375 410.634765625 301.540039062 382.79296875 301.540039062 378.663085938 c 0
 408.04296875 378.663085938 l 0
 408.04296875 421.301757812 361.702148438 517.6875 263.229492188 517.6875 c 0
301.626953125 380.556640625 m 1
 301.626953125 139.828125 l 1
 408.819335938 139.828125 l 1
 408.819335938 380.556640625 l 1
 301.626953125 380.556640625 l 1
EndSplineSet
Validated: 37
EndChar

StartChar: grave
Encoding: 96 96 51
Width: 333
VWidth: 0
Flags: HW
HStem: -23 152<106 196>
VStem: 69 164
LayerCount: 2
Back
Fore
SplineSet
129 605 m 5
 220 605 l 5
 183 757 l 5
 56 757 l 5
 129 605 l 5
EndSplineSet
EndChar

StartChar: NameMe.265
Encoding: 265 -1 52
Width: 1002
VWidth: 0
Flags: W
HStem: 376.944 1.88965<303.478 411.466>
VStem: 303.478 108.776<110.005 138.608 376.944 405.548>
LayerCount: 2
Back
Fore
SplineSet
264.250976562 -0.1259765625 m 7
 364.1796875 -0.1259765625 412.25390625 96.05859375 412.25390625 138.608398438 c 4
 303.12890625 138.608398438 l 7
 303.12890625 134.487304688 296.329101562 106.703125 264.250976562 106.341796875 c 4
 264.250976562 -0.1259765625 l 7
264.512695312 515.678710938 m 3
 264.512695312 409.2109375 l 0
 296.590820312 408.849609375 303.389648438 381.065429688 303.389648438 376.944335938 c 3
 411.465820312 376.944335938 l 0
 411.465820312 419.494140625 364.440429688 515.678710938 264.512695312 515.678710938 c 3
303.477539062 378.833984375 m 5
 303.477539062 138.608398438 l 5
 412.25390625 138.608398438 l 5
 412.25390625 378.833984375 l 5
 303.477539062 378.833984375 l 5
EndSplineSet
Validated: 5
EndChar

StartChar: k
Encoding: 107 107 54
Width: 478
VWidth: 0
Flags: W
HStem: 0 21G<64 174.86 64 174.86 304.046 416.998> 0 21G<304.046 416.998> 678 20G<64.1404 175>
VStem: 64 110.855<0 698>
LayerCount: 2
Back
Fore
SplineSet
310.137695312 514 m 1xb0
 416.998046875 514 l 1
 316.219726562 299.34765625 l 1
 416.998046875 0 l 25
 310.877929688 0 l 25
 208.620117188 299.34765625 l 1
 310.137695312 514 l 1xb0
EndSplineSet
Refer: 68 -1 N 1 0 0 1 -200 0 2
Validated: 1
EndChar

StartChar: backslash
Encoding: 92 92 55
Width: 460
VWidth: 0
Flags: HW
LayerCount: 2
Back
Fore
SplineSet
373 -23 m 29
 246 -23 l 29
 72 716 l 29
 198 716 l 29
 373 -23 l 29
EndSplineSet
Validated: 1
EndChar

StartChar: n
Encoding: 110 110 56
Width: 480
VWidth: 0
Flags: HW
HStem: 0 21G<64.2002 173.275> 0 21G<64.2002 173.275> 289.175 4.72559<307.45 416.15> 417 79<220 281.473> 495.881 20G<66.0645 172.917>
VStem: 64.2002 108.731<0.00195312 515.881> 307.45 108.7<289.175 393.297>
LayerCount: 2
Back
SplineSet
172.931640625 0 m 13xae
 64.2001953125 0.001953125 l 29
 66.1396484375 515.880859375 l 29
 171.931640625 515.880859375 l 21
 173.903320312 351.25390625 173.618164062 164.626953125 172.931640625 0 c 13xae
307.450195312 0 m 5x66
 416.150390625 0 l 5
 416.150390625 293.900390625 l 5
 307.450195312 293.900390625 l 5
 307.450195312 0 l 5x66
416.325195312 289.174804688 m 7
 416.325195312 557.50390625 293 521 220 496 c 4
 220 417 l 7x36
 250.20703125 417 307.450195312 429 307.450195312 289.174804688 c 4
 416.325195312 289.174804688 l 7
EndSplineSet
Fore
SplineSet
72 -4.2255859375 m 1
 180.776367188 -4.2255859375 l 1
 180.776367188 516 l 1
 72 516 l 1
 72 -4.2255859375 l 1
EndSplineSet
Refer: 74 117 N 1 0 0 -1.01357 4 519.687 2
EndChar

StartChar: s
Encoding: 115 115 57
Width: 440
VWidth: 0
Flags: W
HStem: -0.835938 105.473<155.952 192 240 277.477> 411.565 105.067<151.701 191.94 240 278.498>
VStem: 43.0908 102.522<113.625 131.25 333.837 403.076> 284.353 112.452<112.392 187.483>
LayerCount: 2
Back
Refer: 24 83 N 0.7372 0 0 0.7372 20.0751 -3.89952 2
Fore
SplineSet
184.940429688 -0.8994140625 m 1
 105.196289062 -0.9892578125 43.130859375 80.4365234375 43.19140625 131.25 c 1
 145.208984375 149.713867188 l 1
 145.52734375 127.926757812 169.9765625 104.56640625 192 104.63671875 c 1
 192.080078125 69.6142578125 192 34.1865234375 192 -0.8359375 c 1
 184.940429688 -0.8359375 l 1
 184.940429688 -0.8994140625 l 1
388.749023438 383.850585938 m 1
 286.731445312 366.66015625 l 1
 286.68359375 404.412109375 247.681640625 410.924804688 240 411.565429688 c 1
 240 517 l 1
 326.10546875 517 388.815429688 446.083007812 388.749023438 383.850585938 c 1
192 411.565429688 m 1
 164.715820312 412.490234375 145.2283443 395.714367892 145.61328125 363.072265625 c 0
 146.068740142 324.450003631 240.9375 307.990234375 299.673828125 281.032226562 c 0
 340.888671875 262.116210938 396.8046875 232.067382812 396.8046875 157.924804688 c 0
 396.8046875 57.7392578125 321.47265625 -0.8359375 240 -0.8359375 c 1
 240 104.63671875 l 1
 251.701171875 104.63671875 284.352539062 112.3203125 284.352539062 153.912109375 c 0
 284.352539062 207.697265625 181.267578125 207.762695312 131.502929688 232.376953125 c 0
 83.6494140625 256.045898438 43.0908203125 289.184570312 43.0908203125 372.598632812 c 0
 43.0908203125 471.282226562 144.526367188 516.6328125 191.940429688 516.6328125 c 1
 192.020507812 481.610351562 192 446.587890625 192 411.565429688 c 1
EndSplineSet
Validated: 33
EndChar

StartChar: r
Encoding: 114 114 58
Width: 368
VWidth: 0
Flags: W
HStem: 0 21G<63 173.861 63 173.861> 409.203 106.484<248.721 304> 496 20G<63.1389 174>
VStem: 63.1445 110.855
LayerCount: 2
Back
Fore
SplineSet
174 272 m 9xd0
 174 432 l 1
 173.96484375 449.954101562 232.672851562 516.104492188 304 515.6875 c 1
 305 409.203125 l 17
 233.860351562 408.70703125 173.928710938 305.229492188 174 272 c 9xd0
EndSplineSet
Refer: 72 -1 N 1 0 0 1 1 0 2
Validated: 37
EndChar

StartChar: f
Encoding: 102 102 59
Width: 311
VWidth: 0
Flags: W
HStem: 0 21G<92.8555 203.716> 0 21G<92.8555 203.716> 408 107.688<30 263.818> 590 106.417<210.186 263.855>
VStem: 92.8555 110.855<0 586.403>
LayerCount: 2
Back
Fore
SplineSet
92.8330078125 365 m 5x38
 203.782226562 365 l 5
 203.782226562 408 l 5
 92.8330078125 408 l 5
 92.8330078125 365 l 5x38
29.818359375 515.6875 m 1
 107.818359375 515.522460938 185.818359375 515.302734375 263.818359375 515.6875 c 1
 264 408 l 1
 30 408 l 1
 29.818359375 515.6875 l 1
240.85546875 696.416992188 m 1
 263.85546875 696.272460938 l 1
 263.85546875 590 l 1
 242.342773438 590 l 1
 242.342773438 589.8359375 l 1
 210.264648438 589.474609375 203.85546875 562.12109375 203.85546875 558 c 1
 203.7109375 0 l 1
 162 0 130 0 92.85546875 0 c 1xb8
 93 558 l 1
 92.98046875 558 l 1
 92.98046875 600.337890625 141.924804688 695.352539062 240.85546875 696.296875 c 1
 240.85546875 696.416992188 l 1
EndSplineSet
Validated: 37
EndChar

StartChar: g
Encoding: 103 103 60
Width: 437
VWidth: 0
Flags: W
HStem: -181.272 106.272<225.368 257.525> 376.663 1.8936<263.549 369.965> 376.848 1.89108<32.8001 142.382>
VStem: 32.0004 110.381<109.706 138.331 376.848 405.473> 263.549 107.192<109.165 137.828 376.663 405.326> 264 110.711<-71.4035 515.688>
LayerCount: 2
Back
SplineSet
215 106.796875 m 5
 196 106.796875 l 5
 196 0.3125 l 5
 202.333007812 0.3125 208.666992188 0.3125 215 0.3125 c 5
 215 106.796875 l 5
215 515.83203125 m 5
 196 515.6875 l 5
 196 409.415039062 l 5
 215 409.415039062 l 5
 215 515.83203125 l 5
197.749023438 515.813476562 m 7
 97.8203125 515.813476562 49.74609375 419.62890625 49.74609375 377.079101562 c 4
 158.87109375 377.079101562 l 7
 158.87109375 381.200195312 165.670898438 408.984375 197.749023438 409.345703125 c 4
 197.749023438 515.813476562 l 7
197.487304688 0.0087890625 m 4
 197.487304688 106.4765625 l 4
 165.409179688 106.837890625 158.610351562 134.622070312 158.610351562 138.743164062 c 4
 50.5341796875 138.743164062 l 4
 50.5341796875 96.193359375 97.5595703125 0.0087890625 197.487304688 0.0087890625 c 4
158.522460938 136.853515625 m 5
 158.522460938 377.079101562 l 5
 49.74609375 377.079101562 l 5
 49.74609375 136.853515625 l 5
 158.522460938 136.853515625 l 5
EndSplineSet
Fore
SplineSet
226.85546875 -181.416992188 m 1x94
 226.85546875 -181.296875 l 1
 325.786132812 -180.352539062 374.73046875 -85.337890625 374.73046875 -43 c 1
 374.7109375 -43 l 1
 371 515.6875 l 5
 334.047851562 515.130859375 301.096679688 515.45703125 264.14453125 515.6875 c 5
 264 -43 l 1
 264 -47.12109375 257.446289062 -74.474609375 225.368164062 -74.8359375 c 1
 225.368164062 -75 l 1
 50.85546875 -75 l 1
 50.85546875 -181.272460938 l 1
 226.85546875 -181.416992188 l 1x94
EndSplineSet
Refer: 52 -1 N 0.985439 0 0 1.00209 -35.5096 -1.0701 2
Refer: 52 -1 N -1.01475 0 0 1.00076 450.337 -0.382767 2
Validated: 53
EndChar

StartChar: i
Encoding: 105 105 61
Width: 251
VWidth: 0
Flags: W
HStem: 0 21G<69 179.861> 0 21G<69 179.861> 496 20G<69.1389 180> 571.622 128.436<75.5895 172.41>
VStem: 59.7822 128.436<587.43 684.25>
LayerCount: 2
Back
Fore
SplineSet
69.14453125 516 m 1xb8
 106.096679688 515.76953125 143.047851562 515.443359375 180 516 c 1
 179.85546875 0 l 1
 69 0 l 1
 69.14453125 516 l 1xb8
59.7822265625 635.83984375 m 0
 59.7822265625 670.868164062 88.9716796875 700.057617188 124 700.057617188 c 0
 159.028320312 700.057617188 188.217773438 670.868164062 188.217773438 635.83984375 c 0
 188.217773438 600.8125 159.028320312 571.622070312 124 571.622070312 c 0
 88.9716796875 571.622070312 59.7822265625 600.8125 59.7822265625 635.83984375 c 0
EndSplineSet
Validated: 33
EndChar

StartChar: e
Encoding: 101 101 62
Width: 458
VWidth: 0
Flags: W
HStem: 213 105<176 298> 376.944 1.88965<68.5342 176.522> 496.117 20G<264.008 297.582>
VStem: 67.7461 108.776<110.005 138.608 376.944 405.548>
LayerCount: 2
Back
Fore
SplineSet
398 382 m 29
 398 213 l 29
 176 213 l 29
 176 318 l 29
 298 318 l 29
 298 344 l 29
 398 382 l 29
EndSplineSet
Refer: 79 99 S 1 0 0 1 0 0 2
Validated: 5
EndChar

StartChar: d
Encoding: 100 100 63
Width: 437
VWidth: 0
Flags: W
HStem: 0 21G<269 379.86 269 379.86> 0.167969 21G<202 221> 0.167969 21G<202 221> 377.257 1.88965<56.5342 164.522> 495.688 20G<202 221> 678 20G<269.14 380>
VStem: 55.7461 108.776<110.317 138.921 377.257 405.86> 202 19<0.3125 106.585 409.203 515.688> 269 110.855<0 698>
LayerCount: 2
Back
Fore
SplineSet
221 409.203125 m 1x1f80
 202 409.203125 l 1
 202 515.6875 l 1
 208.333007812 515.6875 214.666992188 515.6875 221 515.6875 c 1
 221 409.203125 l 1x1f80
221 0.16796875 m 1x5f80
 202 0.3125 l 1
 202 106.584960938 l 1
 221 106.584960938 l 1
 221 0.16796875 l 1x5f80
EndSplineSet
Refer: 68 -1 N 1 0 0 1 5 0 2
Refer: 52 -1 N -1 0 0 1 468 0.3125 2
Validated: 21
EndChar

StartChar: h
Encoding: 104 104 64
Width: 482
VWidth: 0
Flags: W
HStem: 0 21G<65 175.86 65 175.86> 289.175 4.72559<311.45 420.15> 417 79<224 285.473> 678 20G<65.1404 176>
VStem: 65 110.855<0 698> 311.45 108.7<289.175 393.297>
LayerCount: 2
Back
Fore
SplineSet
311.450195312 0 m 1
 420.150390625 0 l 1
 420.150390625 293.900390625 l 1
 311.450195312 293.900390625 l 1
 311.450195312 0 l 1
420.325195312 289.174804688 m 3
 420.325195312 557.50390625 297 521 224 496 c 0
 224 417 l 3
 254.20703125 417 311.450195312 429 311.450195312 289.174804688 c 0
 420.325195312 289.174804688 l 3
EndSplineSet
Refer: 68 -1 N 1 0 0 1 -199 0 2
Validated: 37
EndChar

StartChar: j
Encoding: 106 106 65
Width: 277
VWidth: 0
Flags: W
HStem: -181.272 106.272<9 62.6691> 496 20G<69.1394 180> 569.622 128.436<75.5895 172.41>
VStem: 59.7822 128.436<585.43 682.25>
LayerCount: 2
Back
Fore
SplineSet
59.7822265625 633.83984375 m 0
 59.7822265625 668.868164062 88.9716796875 698.057617188 124 698.057617188 c 0
 159.028320312 698.057617188 188.217773438 668.868164062 188.217773438 633.83984375 c 0
 188.217773438 598.8125 159.028320312 569.622070312 124 569.622070312 c 0
 88.9716796875 569.622070312 59.7822265625 598.8125 59.7822265625 633.83984375 c 0
32 -181.416992188 m 5
 9 -181.272460938 l 5
 9 -75 l 5
 30.5126953125 -75 l 5
 30.5126953125 -74.8359375 l 5
 62.5908203125 -74.474609375 69 -47.12109375 69 -43 c 5
 69.0002590166 -43 l 5
 69.14453125 516 l 5
 106.096679688 515.76953125 143.047851562 515.443359375 180 516 c 5
 179.855727767 -43 l 5
 179.875 -43 l 5
 179.875 -85.3381718576 130.930958862 -180.352511812 32 -181.296622881 c 5
 32 -181.416992188 l 5
EndSplineSet
Validated: 33
EndChar

StartChar: NameMe.266
Encoding: 266 -1 66
Width: 498
VWidth: 0
Flags: W
HStem: 1.88281 107.167<-634.531 -598.969 -556.031 -520.469 179.594 249.436> 358.772 115.228<-632.023 -598 -557 -522.977 180.949 250.404>
VStem: -737.503 91.7617<118.548 346.595> -509.259 91.7617<118.548 346.595> 79.9014 109.762<105.051 365.778> 303 109.855<1.63477 677>
LayerCount: 2
Back
Fore
SplineSet
-557 474 m 13
 -557 358.772460938 l 21
 -507.544921875 357.180664062 -509.258789062 279.822265625 -509.258789062 239.515625 c 4
 -509.258789062 188.149414062 -502.189453125 109.665039062 -556.03125 109.049804688 c 13
 -556.03125 1.8828125 l 21
 -452.90234375 2.0810546875 -417.497070312 55.4765625 -417.497070312 242.336914062 c 4
 -417.497070312 428.2578125 -471.486328125 473.50390625 -557 474 c 13
-598 474 m 9
 -598 358.772460938 l 17
 -647.455078125 357.180664062 -645.741210938 279.822265625 -645.741210938 239.515625 c 0
 -645.741210938 188.149414062 -652.810546875 109.665039062 -598.96875 109.049804688 c 9
 -598.96875 1.8828125 l 17
 -702.09765625 2.0810546875 -737.502929688 55.4765625 -737.502929688 242.336914062 c 0
 -737.502929688 428.2578125 -683.513671875 473.50390625 -598 474 c 9
303 677 m 1
 412.85546875 677 l 1
 412.85546875 1.634765625 l 1
 303 1.634765625 l 1
 303 677 l 1
250.404296875 472.73828125 m 9
 250.404296875 357.510742188 l 17
 180.94921875 355.918945312 189.663085938 278.560546875 189.663085938 238.25390625 c 0
 189.663085938 186.887695312 179.59375 108.403320312 249.435546875 107.788085938 c 9
 249.435546875 0.62109375 l 17
 114.306640625 0.8193359375 79.9013671875 23.21484375 79.9013671875 241.075195312 c 0
 79.9013671875 452.99609375 133.890625 473.2421875 250.404296875 472.73828125 c 9
303 677 m 1
 412.85546875 677 l 1
 412.85546875 1.634765625 l 1
 303 1.634765625 l 1
 303 677 l 1
303 677 m 1
 412.85546875 677 l 1
 412.85546875 1.634765625 l 1
 303 1.634765625 l 1
 303 677 l 1
250.404296875 472.73828125 m 9
 250.404296875 357.510742188 l 17
 180.94921875 355.918945312 189.663085938 278.560546875 189.663085938 238.25390625 c 0
 189.663085938 186.887695312 179.59375 108.403320312 249.435546875 107.788085938 c 9
 249.435546875 0.62109375 l 17
 114.306640625 0.8193359375 79.9013671875 23.21484375 79.9013671875 241.075195312 c 0
 79.9013671875 452.99609375 133.890625 473.2421875 250.404296875 472.73828125 c 9
303 677 m 1
 412.85546875 677 l 1
 412.85546875 1.634765625 l 1
 303 1.634765625 l 1
 303 677 l 1
EndSplineSet
Validated: 37
EndChar

StartChar: NameMe.267
Encoding: 267 -1 67
Width: 567
VWidth: 0
Flags: W
HStem: 0.213867 228.786<94 196.645>
VStem: 94 102.645<0.213867 229>
LayerCount: 2
Back
Fore
SplineSet
94 229 m 1
 196.64453125 229 l 1
 196.64453125 0.2138671875 l 1
 94 0.2138671875 l 1
 94 229 l 1
EndSplineSet
Validated: 1
EndChar

StartChar: NameMe.268
Encoding: 268 -1 68
Width: 432
VWidth: 0
Flags: W
HStem: 0 21G<264 374.86> 0 21G<264 374.86> 678 20G<264.14 375>
VStem: 264 110.855<0 698>
LayerCount: 2
Back
Fore
SplineSet
264.14453125 698 m 5xb0
 375 698 l 5
 374.85546875 0 l 5
 264 0 l 5
 264.14453125 698 l 5xb0
EndSplineSet
Validated: 1
EndChar

StartChar: hyphen
Encoding: 45 45 70
Width: 444
VWidth: 0
Flags: HW
LayerCount: 2
Back
Fore
SplineSet
381 357 m 1
 381 230 l 1
 65 230 l 1
 65 357 l 1
 381 357 l 1
EndSplineSet
Validated: 1
EndChar

StartChar: slash
Encoding: 47 47 71
Width: 460
VWidth: 0
Flags: HW
LayerCount: 2
Back
Fore
SplineSet
72 -23 m 29
 199 -23 l 29
 373 716 l 29
 247 716 l 29
 72 -23 l 29
EndSplineSet
Validated: 9
EndChar

StartChar: NameMe.269
Encoding: 269 -1 72
Width: 233
VWidth: 0
Flags: W
HStem: 0 21G<62 172.861> 0 21G<62 172.861> 496 20G<62.1389 173>
VStem: 62.1445 110.855
LayerCount: 2
Back
Fore
SplineSet
62.14453125 516 m 5xb0
 99.0963541667 515.770008556 136.048177083 515.443353246 173 516 c 5
 172.85546875 0 l 5
 62 0 l 5
 62.14453125 516 l 5xb0
EndSplineSet
Validated: 33
EndChar

StartChar: NameMe.270
Encoding: 270 -1 73
Width: 1002
VWidth: 0
Flags: W
LayerCount: 2
Back
Fore
SplineSet
264.512695312 515.678710938 m 7
 264.512695312 409.2109375 l 4
 296.590820312 408.849609375 303.389648438 381.065429688 303.389648438 376.944335938 c 7
 411.465820312 376.944335938 l 4
 411.465820312 419.494140625 364.440429688 515.678710938 264.512695312 515.678710938 c 7
EndSplineSet
Validated: 9
EndChar

StartChar: u
Encoding: 117 117 74
Width: 476
VWidth: 0
Flags: W
HStem: -2.95996 106.468<181.177 216.227 263.773 298.823> 496 20G<68.2236 177>
VStem: 68.2236 108.776<107.171 516>
LayerCount: 2
Back
Refer: 15 85 S 0.731558 0 0 0.730289 10.4221 5.47717 2
Refer: 15 85 N 0.731558 0 0 0.730289 10.4221 5.47717 2
Refer: 15 85 N 0.731558 0 0 0.730289 10.4221 5.47717 2
Fore
SplineSet
216.2265625 -2.9599609375 m 7
 116.297851562 -2.9599609375 68.2236328125 93.224609375 68.2236328125 135.774414062 c 4
 177.348632812 135.774414062 l 7
 177.348632812 131.653320312 184.1484375 103.869140625 216.2265625 103.5078125 c 4
 216.2265625 -2.9599609375 l 7
177 516 m 5
 177 135.774414062 l 5
 68.2236328125 135.774414062 l 5
 68.2236328125 516 l 5
 177 516 l 5
263.7734375 -2.9599609375 m 7
 363.702148438 -2.9599609375 411.776367188 93.224609375 411.776367188 135.774414062 c 4
 302.651367188 135.774414062 l 7
 302.651367188 131.653320312 295.8515625 103.869140625 263.7734375 103.5078125 c 4
 263.7734375 -2.9599609375 l 7
303 516 m 5
 303 135.774414062 l 5
 411.776367188 135.774414062 l 5
 411.776367188 516 l 5
 303 516 l 5
EndSplineSet
Validated: 5
EndChar

StartChar: m
Encoding: 109 109 75
Width: 480
VWidth: 0
Flags: HW
HStem: 0 21G<64.2002 173.275 64.2002 173.275> 289.175 4.72559<307.45 416.15 542.45 651.15> 417 79<220 281.473> 495.881 20G<66.0645 172.917>
VStem: 64.2002 108.731<0.00195312 515.881> 307.45 108.7<289.175 393.297> 542.45 108.7<289.175 356.672>
LayerCount: 2
Back
Fore
SplineSet
72 -4.2255859375 m 5
 180.776367188 -4.2255859375 l 5
 180.776367188 516 l 5
 72 516 l 5
 72 -4.2255859375 l 5
453.450195312 518.734375 m 4
 453.450195312 412.266601562 l 4
 421.372070312 411.905273438 414.572265625 384.12109375 414.572265625 380 c 4
 305.447265625 380 l 4
 305.447265625 422.549804688 353.521484375 518.734375 453.450195312 518.734375 c 4
500.997070312 518.734375 m 4
 600.92578125 518.734375 649 422.549804688 649 380 c 4
 539.875 380 l 4
 539.875 384.12109375 533.075195312 411.905273438 500.997070312 412.266601562 c 4
 500.997070312 518.734375 l 4
540.223632812 -0.2255859375 m 5
 540.223632812 380 l 5
 649 380 l 5
 649 -0.2255859375 l 5
 540.223632812 -0.2255859375 l 5
EndSplineSet
Refer: 74 117 S 1 0 0 -1.01357 4 519.687 2
EndChar

StartChar: six
Encoding: 54 54 76
Width: 1024
VWidth: 0
Flags: HW
LayerCount: 2
Back
Fore
SplineSet
435 698 m 9
 435 573 l 17
 383.480064824 571.498310578 359 463.747070312 360 400 c 1
 383.38671875 410.795898438 408.105375518 415.241492678 436 415 c 9
 436 297 l 17
 407 298 370 269 370 210 c 0
 370 173 398 129 436 125 c 9
 436 0 l 21
 265 0 238 194 238 365 c 0
 238 482 290 698 435 698 c 9
563 537 m 9
 658 600 l 17
 623 659 568 698 490 698 c 9
 490 572 l 17
 522.895507812 575.77734375 545 562 563 537 c 9
490 415 m 9
 491 299 l 17
 526 299 558 263 558 209 c 0
 558 173 531 130 490 125 c 9
 490 1 l 17
 582 2 674 76 674 210 c 0
 674 328 617 415 490 415 c 9
EndSplineSet
Colour: ff0000
EndChar

StartChar: c
Encoding: 99 99 79
Width: 458
VWidth: 0
Flags: W
HStem: 376.944 1.88965<68.5342 176.522> 496.117 20G<264.008 297.582>
VStem: 67.7461 108.776<110.005 138.608 376.944 405.548>
LayerCount: 2
Back
Fore
SplineSet
264.0078125 105.233398438 m 13
 264.0078125 -0.71875 l 21
 331.155273438 -0.71875 398 65.6328125 398 134.69921875 c 13
 298.048828125 172.575195312 l 29
 298.048828125 150.883789062 l 30
 298.048828125 140.760742188 298.3046875 133.025390625 294.427734375 124.129882812 c 4
 287.14453125 107.419921875 264.0078125 105.233398438 264.0078125 105.233398438 c 13
264.0078125 410.165039062 m 13
 264.0078125 516.1171875 l 21
 331.155273438 516.1171875 398 449.765625 398 380.69921875 c 13
 298.048828125 342.823242188 l 29
 298.048828125 364.514648438 l 30
 298.048828125 374.637695312 298.3046875 382.373046875 294.427734375 391.268554688 c 4
 287.14453125 407.978515625 264.0078125 410.165039062 264.0078125 410.165039062 c 13
EndSplineSet
Refer: 52 -1 S -1 0 0 1 480 0 2
Validated: 21
EndChar

StartChar: t
Encoding: 116 116 81
Width: 311
VWidth: 0
Flags: W
VStem: 92.9805 110.875<109.597 697>
LayerCount: 2
Back
Fore
SplineSet
92.8330078125 365 m 5
 92.8330078125 408 l 5
 203.782226562 408 l 5
 203.782226562 365 l 5
 92.8330078125 365 l 5
30 515.6875 m 1
 30 408 l 1
 264 408 l 1
 264 515.6875 l 1
 186 515.623194368 108 515.57450437 30 515.6875 c 1
240.85546875 -0.4169921875 m 1
 263.85546875 -0.2724609375 l 1
 263.85546875 106 l 1
 242.342773438 106 l 1
 242.342773438 106.1640625 l 1
 210.264648438 106.525390625 203.85546875 133.87890625 203.85546875 138 c 1
 203.7109375 697 l 1
 166.758789062 696.76953125 129.807617188 696.443359375 92.85546875 697 c 1
 93 138 l 1
 92.98046875 138 l 1
 92.98046875 95.662109375 141.924804688 0.6474609375 240.85546875 -0.296875 c 1
 240.85546875 -0.4169921875 l 1
EndSplineSet
Validated: 37
EndChar

StartChar: v
Encoding: 118 118 82
Width: 462
VWidth: 0
Flags: W
HStem: 0 21G<191.794 253.262> 0 21G<191.794 253.262> 495.688 20G<48 174.845 280.994 402>
LayerCount: 2
Back
SplineSet
386 515.6875 m 5
 231.244140625 0 l 1025
EndSplineSet
Fore
SplineSet
402 515.197265625 m 5x20
 317.353515625 232.438476562 l 5
 300.985351562 232.438476562 l 5
 252.047851562 397.301757812 l 5
 286.877929688 515.6875 l 5
 402 515.197265625 l 5x20
48 515.197265625 m 5
 169.12109375 515.6875 l 5
 282.858398438 118.287109375 l 5
 247.239257812 0 l 5
 197.6015625 0 l 5xa0
 48 515.197265625 l 5
EndSplineSet
Validated: 1
EndChar

StartChar: w
Encoding: 119 119 83
Width: 620
VWidth: 0
Flags: W
HStem: 0 21G<204.794 266.262 377.794 439.262 377.794 439.262> 0 21G<204.794 266.262> 495.688 20G<61 187.845 234 360.845 466.994 588>
LayerCount: 2
Back
Fore
SplineSet
61 515.197265625 m 1xa0
 182.12109375 515.6875 l 1
 295.858398438 118.287109375 l 1
 260.239257812 0 l 1
 210.6015625 0 l 1
 61 515.197265625 l 1xa0
EndSplineSet
Refer: 82 118 N 1 0 0 1 186 0 2
Validated: 1
EndChar

StartChar: x
Encoding: 120 120 84
Width: 413
VWidth: 0
Flags: W
HStem: 0 21G<35 157.332 252.107 373> 0 21G<35 157.332 252.107 373> 495 21G<39 161.315 248.09 369>
VStem: 35 338
LayerCount: 2
Back
Fore
SplineSet
35 0 m 5xb0
 256.700195312 515 l 5
 369 515 l 5
 148.779296875 0 l 5
 35 0 l 5xb0
39 516 m 5
 152.779296875 516 l 5
 373 0 l 5
 260.700195312 0 l 5
 39 516 l 5
EndSplineSet
Validated: 5
EndChar

StartChar: y
Encoding: 121 121 85
Width: 461
VWidth: 0
Flags: HW
HStem: 0 21G<191.794 253.262> 0 21G<191.794 253.262> 495.688 20G<48 174.845 280.994 402>
LayerCount: 2
Back
SplineSet
22 515.6875 m 5
 140 106 l 5
 156.368164062 106 l 5
 209.305664062 270.86328125 l 5
 137.122070312 516.177734375 l 5
 22 515.6875 l 5
102 -182 m 5
 339.700195312 515.6875 l 5
 452 515.6875 l 5
 215.779296875 -182 l 5
 102 -182 l 5
EndSplineSet
Fore
SplineSet
402 515.197265625 m 1x20
 317.353515625 232.438476562 l 1
 300.985351562 232.438476562 l 1
 252.047851562 397.301757812 l 1
 286.877929688 515.6875 l 1
 402 515.197265625 l 1x20
48 515.197265625 m 1
 169.12109375 515.6875 l 1
 282.858398438 118.287109375 l 1
 247.239257812 0 l 1
 197.6015625 0 l 1xa0
 48 515.197265625 l 1
89 -144 m 1
 226 320 l 1
 282.858398438 118.287109375 l 1
 202.779296875 -144 l 1
 89 -144 l 1
EndSplineSet
Validated: 5
EndChar

StartChar: z
Encoding: 122 122 86
Width: 433
VWidth: 0
Flags: W
VStem: 44 252.789
LayerCount: 2
Back
Fore
SplineSet
159.51953125 106.603515625 m 17
 296.7890625 409.866210938 l 1
 296.7890625 516.24609375 l 1
 44 516 l 1
 44 410.11328125 l 1
 181.61328125 410.11328125 l 1
 44 105.603515625 l 1
 44 -0.494140625 l 1
 296.7890625 -0.494140625 l 1
 296.7890625 105.845703125 l 1
 159.51953125 106.603515625 l 17
EndSplineSet
Validated: 9
EndChar

StartChar: three
Encoding: 51 51 87
Width: 574
VWidth: 0
Flags: HW
LayerCount: 2
Back
Fore
SplineSet
167 160 m 9
 61 97 l 17
 94 41 152 -1 230 -1 c 9
 230 125 l 17
 201.104492188 127.22265625 181 139 167 160 c 9
289 122 m 1x76
 332 122 364 160.98828125 364 201 c 3
 364 251 332 286 288 286 c 1
 288 410 l 1
 341 416 364 448 364 499 c 3
 364 555.016601562 317 576 287 574 c 1
 287 698 l 1
 421 695 488 582 488 508 c 3
 488 403 440 353 426 350 c 1
 454 331 489 274 489 199 c 3
 489 74 370 -1 290 0 c 1
 289 122 l 1x76
167 537 m 9
 61 600 l 17
 94 656 152 698 230 698 c 9
 230 572 l 17
 201.104492188 569.77734375 181 558 167 537 c 9
EndSplineSet
EndChar

StartChar: five
Encoding: 53 53 88
Width: 1024
VWidth: 0
Flags: H
LayerCount: 2
Back
Fore
SplineSet
293 160 m 9
 187 97 l 17
 220 41 278 -1 356 -1 c 9
 356 125 l 17
 327.104492188 127.22265625 307 139 293 160 c 9
414 414 m 13
 414 286 l 21
 451 279 487 258 487 202 c 4
 487 161 458 128 413 125 c 13
 413 -2 l 21
 518 0 612 86 612 210 c 4
 612 275 563 411 414 414 c 13
563 574 m 25
 563 700 l 25
 209 700 l 25
 183 318 l 25
 294 252 l 1
 305.68548975 271.809149583 330.080380983 286.148598642 356 287 c 1
 356 413 l 17
 339.469726562 413 326.387361931 410.824960552 313 408 c 9
 325 573 l 25
 563 574 l 25
EndSplineSet
Validated: 9
EndChar

StartChar: seven
Encoding: 55 55 89
Width: 1024
VWidth: 0
Flags: H
LayerCount: 2
Back
Fore
SplineSet
392 450 m 13
 523 450 l 21
 499 358 490 310 479 224 c 4
 467.857514548 136.886022832 466 87 460 0 c 13
 333 0 l 21
 340 112 342.58524154 177.200380395 359 288 c 4
 367 342 376 387 392 450 c 13
224 698 m 25
 224 572 l 25
 428 572 l 25
 408 510 l 25
 540 510 l 25
 561 573 l 25
 561 698 l 25
 224 698 l 25
EndSplineSet
Validated: 9
EndChar

StartChar: eight
Encoding: 56 56 90
Width: 1024
VWidth: 0
Flags: HW
LayerCount: 2
Back
Fore
SplineSet
359 125 m 1x76
 326 134 301 164.98828125 301 201 c 3
 301 251 328 274 360 283 c 1
 360 413 l 1
 324 424 304 446 304 497 c 3
 304 551.016601562 343 568 361 571 c 1
 361 698 l 1
 291 698 180 619 180 499 c 3
 180 415 224 352 238 349 c 1
 210 330 173 269 173 199 c 7
 173 52 320 -1 358 0 c 1
 359 125 l 1x76
421 125 m 1x76
 454 134 479 164.98828125 479 201 c 3
 479 251 452 274 420 283 c 1
 420 413 l 1
 456 424 476 446 476 497 c 3
 476 551.016601562 437 568 419 571 c 1
 419 698 l 1
 489 698 599 619 599 499 c 3
 599 415 556 352 542 349 c 1
 570 330 607 269 607 199 c 3
 607 52 460 -1 422 0 c 1
 421 125 l 1x76
EndSplineSet
EndChar

StartChar: nine
Encoding: 57 57 91
Width: 1024
VWidth: 0
Flags: HW
LayerCount: 2
Back
Fore
SplineSet
503 1 m 9
 503 119 l 17
 559.51953125 120.501953125 582 231.252929688 578 299 c 1
 554.61328125 288.204101562 529.89453125 283.758789062 502 284 c 9
 502 402 l 17
 531 401 568 430 568 489 c 0
 568 526 535 570 502 574 c 9
 502 699 l 17
 676 699 703 512 703 334 c 4
 703 160 636 1 503 1 c 9
375 162 m 9
 291 100 l 17
 321 37 375 1 448 1 c 9
 448 119 l 17
 410.104492188 120.22265625 393 140 375 162 c 9
448 284 m 9
 447 400 l 17
 412 400 380 436 380 490 c 0
 380 526 407 569 448 574 c 9
 448 698 l 17
 356 697 264 623 264 489 c 0
 264 371 321 284 448 284 c 9
EndSplineSet
Colour: ff0000
EndChar

StartChar: zero
Encoding: 48 48 92
Width: 1024
VWidth: 0
Flags: H
LayerCount: 2
Back
SplineSet
401.306640625 575.5859375 m 1
 402.30859375 573.377929688 l 1
 394.237304688 569.713867188 386.638671875 565.08203125 379.686523438 559.583984375 c 1
 378.18359375 561.485351562 l 1
 385.291992188 567.104492188 393.055664062 571.838867188 401.306640625 575.5859375 c 1
378.426757812 561.196289062 m 1
 379.944335938 559.306640625 l 1
 374.92578125 555.279296875 370.755859375 550.299804688 367.676757812 544.651367188 c 1
 365.548828125 545.80859375 l 1
 368.78125 551.739257812 373.16015625 556.966796875 378.426757812 561.196289062 c 1
365.403320312 545.740234375 m 1
 367.508789062 544.5390625 l 1
 365.295898438 540.665039062 363.650390625 536.495117188 362.62109375 532.154296875 c 1
 360.262695312 532.713867188 l 1
 361.344726562 537.278320312 363.079101562 541.666992188 365.403320312 545.740234375 c 1
360.323242188 532.787109375 m 1
 362.6796875 532.22265625 l 1
 360.078125 521.345703125 358.111328125 510.326171875 356.790039062 499.220703125 c 1
 354.3828125 499.5078125 l 1
 355.717773438 510.705078125 357.700195312 521.817382812 360.323242188 532.787109375 c 1
354.297851562 499.247070312 m 1
 356.700195312 498.950195312 l 1
 352.055664062 461.396484375 l 1
 348.958007812 423.830078125 l 1
 347.020507812 386.265625 l 1
 346.244140625 348.322265625 l 1
 347.020507812 310.372070312 l 1
 348.953125 272.803710938 l 1
 352.048828125 235.249023438 l 1
 356.700195312 197.646484375 l 1
 354.297851562 197.349609375 l 1
 349.646484375 234.952148438 l 1
 346.5390625 272.603515625 l 1
 344.598632812 310.24609375 l 1
 343.822265625 348.274414062 l 1
 344.598632812 386.314453125 l 1
 346.536132812 423.956054688 l 1
 349.641601562 461.595703125 l 1
 354.297851562 499.247070312 l 1
354.3828125 197.478515625 m 1
 356.790039062 197.765625 l 1
 358.108398438 186.666992188 360.075195312 175.659179688 362.674804688 164.790039062 c 1
 360.31640625 164.225585938 l 1
 357.697265625 175.1875 355.715820312 186.288085938 354.3828125 197.478515625 c 1
360.265625 164.266601562 m 1
 362.624023438 164.826171875 l 1
 363.65234375 160.485351562 365.295898438 156.318359375 367.508789062 152.446289062 c 1
 365.403320312 151.245117188 l 1
 363.079101562 155.31640625 361.34765625 159.703125 360.265625 164.266601562 c 1
365.532226562 151.20703125 m 1
 367.66015625 152.364257812 l 1
 370.748046875 146.693359375 374.930664062 141.694335938 379.96875 137.66015625 c 1
 378.456054688 135.768554688 l 1
 373.165039062 140.00390625 368.7734375 145.25390625 365.532226562 151.20703125 c 1
378.599609375 135.65625 m 1
 380.102539062 137.557617188 l 1
 387.033203125 132.067382812 394.609375 127.44921875 402.658203125 123.809570312 c 1
 401.661132812 121.6015625 l 1
 393.432617188 125.32421875 385.685546875 130.043945312 378.599609375 135.65625 c 1
400.421875 122.678710938 m 1
 402.84375 122.678710938 l 1
 402.84375 0.177734375 l 1
 400.421875 0.177734375 l 1
 400.421875 122.678710938 l 1
351.0859375 13.716796875 m 1
 352.16015625 15.8857421875 l 1
 367.8515625 8.107421875 384.805664062 3.1953125 402.225585938 1.3955078125 c 1
 401.977539062 -1.0166015625 l 1
 384.267578125 0.8173828125 367.03515625 5.806640625 351.0859375 13.716796875 c 1
298.24609375 52.4189453125 m 1
 300.01171875 54.0771484375 l 1
 314.895507812 38.232421875 332.571289062 25.2666015625 352.155273438 15.830078125 c 1
 351.10546875 13.646484375 l 1
 331.252929688 23.21484375 313.334960938 36.35546875 298.24609375 52.4189453125 c 1
271.760742188 87.6748046875 m 1
 273.875976562 88.859375 l 1
 280.9765625 76.18359375 289.662109375 64.46484375 299.72265625 53.9892578125 c 1
 297.9765625 52.3115234375 l 1
 287.770507812 62.935546875 278.962890625 74.8212890625 271.760742188 87.6748046875 c 1
247.966796875 147.215820312 m 1
 250.301757812 147.858398438 l 1
 255.930664062 127.444335938 263.901367188 107.748046875 274.048828125 89.1611328125 c 1
 271.923828125 87.9990234375 l 1
 261.684570312 106.750976562 253.645507812 126.623046875 247.966796875 147.215820312 c 1
229.190429688 238.201171875 m 1
 231.592773438 238.521484375 l 1
 235.7265625 207.80078125 242.01171875 177.40234375 250.408203125 147.561523438 c 1
 248.07421875 146.905273438 l 1
 239.6484375 176.858398438 233.338867188 207.36328125 229.190429688 238.201171875 c 1
220.545898438 347.873046875 m 1
 222.967773438 347.950195312 l 1
 224.127929688 311.561523438 l 1
 226.8359375 274.78515625 l 1
 231.1015625 238.344726562 l 1
 228.694335938 238.0625 l 1
 224.428710938 274.502929688 l 1
 221.709960938 311.380859375 l 1
 220.545898438 347.873046875 l 1
227.529296875 457.360351562 m 1
 229.936523438 457.102539062 l 1
 226.065429688 420.71484375 l 1
 223.743164062 384.325195312 l 1
 222.967773438 347.884765625 l 1
 220.545898438 347.938476562 l 1
 221.321289062 384.37890625 l 1
 223.6484375 420.87109375 l 1
 227.529296875 457.360351562 l 1
245.482421875 547.8828125 m 1
 247.821289062 547.254882812 l 1
 239.9140625 517.751953125 234.09765625 487.7265625 230.416015625 457.401367188 c 1
 228.008789062 457.693359375 l 1
 231.704101562 488.129882812 237.544921875 518.267578125 245.482421875 547.8828125 c 1
267.940429688 605.653320312 m 1
 270.071289062 604.49609375 l 1
 260.266601562 586.421875 252.6875 567.221679688 247.498046875 547.323242188 c 1
 245.154296875 547.936523438 l 1
 250.391601562 568.0234375 258.043945312 587.404296875 267.940429688 605.653320312 c 1
294.306640625 640.569335938 m 1
 296.038085938 638.876953125 l 1
 285.983398438 628.590820312 277.314453125 617.041015625 270.250976562 604.5078125 c 1
 268.140625 605.69921875 l 1
 275.306640625 618.415039062 284.103515625 630.1328125 294.306640625 640.569335938 c 1
350.137695312 683.04296875 m 1
 351.265625 680.8984375 l 1
 330.633789062 670.026367188 311.91015625 655.869140625 295.827148438 638.984375 c 1
 294.071289062 640.657226562 l 1
 310.338867188 657.732421875 329.271484375 672.049804688 350.137695312 683.04296875 c 1
402 698 m 1
 402.189453125 695.583007812 l 1
 384.428710938 694.174804688 367.15625 689.063476562 351.487304688 680.577148438 c 1
 350.333984375 682.70703125 l 1
 366.30078125 691.354492188 383.8984375 696.5625 402 698 c 1
400.421875 696.80859375 m 1
 402.84375 696.80859375 l 1
 402.84375 573.91796875 l 1
 400.421875 573.91796875 l 1
 400.421875 696.80859375 l 1
487.3359375 561.115234375 m 1
 485.833007812 559.213867188 l 1
 478.907226562 564.697265625 471.342773438 569.322265625 463.303710938 572.984375 c 1
 464.305664062 575.1875 l 1
 472.524414062 571.447265625 480.259765625 566.720703125 487.3359375 561.115234375 c 1
500.123046875 545.813476562 m 1
 497.998046875 544.65625 l 1
 494.916992188 550.3046875 490.747070312 555.282226562 485.728515625 559.306640625 c 1
 487.245117188 561.198242188 l 1
 492.512695312 556.971679688 496.891601562 551.744140625 500.123046875 545.813476562 c 1
505.412109375 532.71875 m 1
 503.053710938 532.159179688 l 1
 502.025390625 536.5 500.37890625 540.669921875 498.1640625 544.543945312 c 1
 500.266601562 545.745117188 l 1
 502.596679688 541.671875 504.330078125 537.283203125 505.412109375 532.71875 c 1
511.233398438 499.619140625 m 1
 508.826171875 499.327148438 l 1
 507.486328125 510.430664062 505.5 521.4453125 502.880859375 532.317382812 c 1
 505.234375 532.88671875 l 1
 507.877929688 521.922851562 509.87890625 510.814453125 511.233398438 499.619140625 c 1
521.8359375 348.833007812 m 1
 519.4140625 348.818359375 l 1
 519.1171875 399.249023438 515.595703125 449.607421875 508.875 499.587890625 c 1
 511.27734375 499.909179688 l 1
 518.012695312 449.827148438 521.5390625 399.365234375 521.8359375 348.833007812 c 1
511.296875 197.293945312 m 1
 508.89453125 197.614257812 l 1
 515.608398438 247.5625 519.122070312 297.887695312 519.4140625 348.286132812 c 1
 521.8359375 348.271484375 l 1
 521.543945312 297.771484375 518.025390625 247.34375 511.296875 197.293945312 c 1
505.2421875 164.125976562 m 1
 502.888671875 164.6953125 l 1
 505.506835938 175.56640625 507.491210938 186.58203125 508.829101562 197.6875 c 1
 511.236328125 197.395507812 l 1
 509.883789062 186.198242188 507.885742188 175.08984375 505.2421875 164.125976562 c 1
500.271484375 151.245117188 m 1
 498.166015625 152.446289062 l 1
 500.37890625 156.318359375 502.025390625 160.485351562 503.053710938 164.826171875 c 1
 505.412109375 164.266601562 l 1
 504.330078125 159.703125 502.596679688 155.31640625 500.271484375 151.245117188 c 1
487.607421875 135.768554688 m 1
 486.095703125 137.66015625 l 1
 491.133789062 141.694335938 495.31640625 146.693359375 498.40234375 152.364257812 c 1
 500.532226562 151.20703125 l 1
 497.291015625 145.25390625 492.899414062 140.00390625 487.607421875 135.768554688 c 1
464.506835938 121.61328125 m 1
 463.510742188 123.821289062 l 1
 471.556640625 127.458984375 479.125976562 132.069335938 486.053710938 137.545898438 c 1
 487.556640625 135.64453125 l 1
 480.473632812 130.046875 472.733398438 125.333984375 464.506835938 121.61328125 c 1
462.447265625 122.678710938 m 1
 464.869140625 122.678710938 l 1
 464.869140625 0.177734375 l 1
 462.447265625 0.177734375 l 1
 462.447265625 122.678710938 l 1
464.088867188 -1.01171875 m 1
 463.840820312 1.3984375 l 1
 481.209960938 3.197265625 498.122070312 8.099609375 513.767578125 15.8642578125 c 1
 514.844726562 13.6953125 l 1
 498.939453125 5.7998046875 481.75 0.8193359375 464.088867188 -1.01171875 c 1
514.572265625 13.646484375 m 1
 513.521484375 15.830078125 l 1
 533.106445312 25.2666015625 550.782226562 38.232421875 565.663085938 54.0771484375 c 1
 567.428710938 52.4189453125 l 1
 552.342773438 36.35546875 534.423828125 23.21484375 514.572265625 13.646484375 c 1
567.584960938 52.5791015625 m 1
 565.838867188 54.2568359375 l 1
 575.908203125 64.72265625 584.598632812 76.4267578125 591.713867188 89.087890625 c 1
 593.82421875 87.9013671875 l 1
 586.612304688 75.0595703125 577.794921875 63.19140625 567.584960938 52.5791015625 c 1
593.853515625 87.798828125 m 1
 591.725585938 88.95703125 l 1
 601.866210938 107.561523438 609.822265625 127.272460938 615.436523438 147.702148438 c 1
 617.771484375 147.060546875 l 1
 612.107421875 126.450195312 604.083007812 106.564453125 593.853515625 87.798828125 c 1
617.603515625 146.905273438 m 1
 615.268554688 147.561523438 l 1
 623.663085938 177.40234375 629.94921875 207.80078125 634.084960938 238.521484375 c 1
 636.487304688 238.198242188 l 1
 632.336914062 207.36328125 626.026367188 176.858398438 617.603515625 146.905273438 c 1
636.514648438 238.346679688 m 1
 634.116210938 238.6875 l 1
 639.245117188 274.994140625 641.973632812 311.599609375 642.291992188 348.266601562 c 1
 644.713867188 348.247070312 l 1
 644.395507812 311.473632812 641.657226562 274.760742188 636.514648438 238.346679688 c 1
644.735351562 348.315429688 m 1
 642.313476562 348.325195312 l 1
 642.474609375 384.81640625 640.224609375 421.28125 635.580078125 457.479492188 c 1
 637.983398438 457.78515625 l 1
 642.641601562 421.486328125 644.896484375 384.9140625 644.735351562 348.315429688 c 1
637.611328125 457.736328125 m 1
 635.206054688 457.4453125 l 1
 631.504882812 487.764648438 625.668945312 517.7890625 617.7421875 547.2890625 c 1
 620.081054688 547.916992188 l 1
 628.037109375 518.30859375 633.897460938 488.173828125 637.611328125 457.736328125 c 1
620.516601562 547.959960938 m 1
 618.172851562 547.34765625 l 1
 612.98046875 567.24609375 605.401367188 586.443359375 595.594726562 604.517578125 c 1
 597.724609375 605.67578125 l 1
 607.624023438 587.42578125 615.276367188 568.047851562 620.516601562 547.959960938 c 1
597.994140625 605.573242188 m 1
 595.883789062 604.38671875 l 1
 588.83203125 616.916992188 580.177734375 628.471679688 570.135742188 638.762695312 c 1
 571.869140625 640.455078125 l 1
 582.060546875 630.013671875 590.840820312 618.288085938 597.994140625 605.573242188 c 1
571.518554688 640.357421875 m 1
 569.763671875 638.684570312 l 1
 553.672851562 655.5625 534.9375 669.708007812 514.299804688 680.567382812 c 1
 515.428710938 682.711914062 l 1
 536.298828125 671.73046875 555.244140625 657.42578125 571.518554688 640.357421875 c 1
515.751953125 682.6953125 m 1
 514.598632812 680.565429688 l 1
 498.931640625 689.053710938 481.66015625 694.169921875 463.899414062 695.580078125 c 1
 464.091796875 697.997070312 l 1
 482.190429688 696.557617188 499.788085938 691.344726562 515.751953125 682.6953125 c 1
462.447265625 696.80859375 m 1
 464.869140625 696.80859375 l 1
 464.869140625 573.91796875 l 1
 462.447265625 573.91796875 l 1
 462.447265625 696.80859375 l 1
EndSplineSet
Fore
SplineSet
464 698 m 9
 464 573 l 17
 531 557 522 402 522 357 c 0
 522 263 524 138 465 124 c 9
 465 0 l 17
 531 3 647 60 647 353 c 0
 647 602 553 693 464 698 c 9
404 698 m 9
 404 573 l 17
 337 557 346 402 346 357 c 0
 346 263 344 138 403 124 c 9
 403 0 l 17
 337 3 221 60 221 353 c 0
 221 602 315 693 404 698 c 9
EndSplineSet
Validated: 41
EndChar

StartChar: semicolon
Encoding: 59 59 93
Width: 167
VWidth: 0
Flags: HW
LayerCount: 2
Back
Fore
SplineSet
176 -23 m 1
 49 -23 l 1
 86 129 l 1
 213 129 l 1
 176 -23 l 1
89.537109375 360.309570312 m 0
 89.537109375 402.39453125 122.762695312 435.620117188 164.84765625 435.620117188 c 0
 206.932617188 435.620117188 240.157226562 402.39453125 240.157226562 360.309570312 c 0
 240.157226562 318.224609375 206.932617188 285 164.84765625 285 c 0
 122.762695312 285 89.537109375 318.224609375 89.537109375 360.309570312 c 0
EndSplineSet
Validated: 1
EndChar

StartChar: quotesingle
Encoding: 39 39 94
Width: 460
VWidth: 0
Flags: HW
LayerCount: 2
Back
Fore
SplineSet
199 465 m 5
 72 465 l 5
 72 736 l 5
 199 736 l 5
 199 465 l 5
EndSplineSet
Validated: 1
EndChar

StartChar: ampersand
Encoding: 38 38 95
Width: 1024
VWidth: 0
Flags: H
LayerCount: 2
Back
SplineSet
382.9921875 168.303710938 m 2
 382.291015625 167.834960938 382.25390625 168.067382812 382.25390625 167.565429688 c 0
 382.25390625 15.673828125 l 1
 383.223632812 15.9951171875 l 0
 392.005859375 18.900390625 400.618164062 22.2607421875 409.171875 26.05859375 c 0
 417.725585938 29.8603515625 426.225585938 34.109375 434.723632812 38.91796875 c 0
 443.165039062 43.671875 451.608398438 48.984375 459.715820312 54.6875 c 0
 467.670898438 60.1875 475.34375 66.1044921875 482.79296875 72.373046875 c 1
 529.499023438 16.291015625 l 1
 726.052734375 16.291015625 l 1
 584.432617188 180.54296875 l 1
 594.495117188 191.46484375 604.204101562 203.705078125 612.560546875 216.29296875 c 0
 621.115234375 229.15234375 628.608398438 242.684570312 634.926757812 256.666015625 c 0
 641.24609375 270.59375 646.391601562 285.299804688 650.306640625 299.838867188 c 0
 654.274414062 314.370117188 656.9609375 328.916992188 658.415039062 344.020507812 c 0
 658.493164062 344.829101562 l 1
 519.826171875 344.829101562 l 1
 519.744140625 344.184570312 l 0
 518.744140625 336.404296875 517.192382812 328.64453125 515.080078125 321.42578125 c 1
 512.915039062 313.646484375 510.200195312 306.443359375 506.866210938 299.220703125 c 0
 503.72265625 292.293945312 500.1015625 285.833984375 495.926757812 279.560546875 c 1
 427.600585938 361.694335938 l 1
 451.46875 373.828125 474.015625 390.005859375 491.158203125 407.149414062 c 0
 508.513671875 424.505859375 520.61328125 442.98828125 528.791992188 461.47265625 c 0
 536.969726562 479.961914062 541.177734375 498.475585938 541.625976562 519.206054688 c 0
 542.130859375 539.369140625 538.884765625 561.754882812 532.501953125 581.909179688 c 0
 526.116210938 602.069335938 516.536132812 619.999023438 504.155273438 635.689453125 c 0
 491.833007812 651.3671875 476.616210938 664.840820312 456.068359375 675.481445312 c 1
 435.522460938 686.6796875 409.563476562 695.067382812 383.115234375 699.536132812 c 0
 382.25390625 699.681640625 l 1
 382.25390625 582.8984375 l 1
 382.666992188 582.696289062 l 0
 388.2734375 579.947265625 393.390625 576.09765625 397.453125 571.705078125 c 0
 401.583007812 567.297851562 404.682617188 562.40625 406.776367188 555.797851562 c 1
 408.870117188 549.734375 410.02734375 542.600585938 409.584960938 533.7578125 c 0
 409.142578125 525.477539062 407.151367188 515.526367188 402.630859375 506.15234375 c 0
 398.108398438 496.780273438 391.029296875 487.922851562 382.49609375 480.1640625 c 0
 382.25390625 479.944335938 l 1
 382.25390625 198.301757812 l 1
 397.286132812 180.583984375 l 1
 396.719726562 179.983398438 395.890625 179.119140625 395.08203125 178.352539062 c 1
 394.0859375 177.357421875 392.998046875 176.380859375 390.88671875 174.599609375 c 1
 388.793945312 172.889648438 385.666992188 170.490234375 382.549804688 168.15625 c 0
 382.354492188 168.009765625 382.2421875 167.76953125 382.255859375 167.525390625 c 1
 382.9921875 168.303710938 l 2
383.892578125 167.318359375 m 2
 386.870117188 169.5546875 389.788085938 171.796875 391.830078125 173.46484375 c 1
 393.9609375 175.26171875 395.099609375 176.283203125 396.111328125 177.295898438 c 1
 397.118164062 178.249023438 397.98046875 179.166015625 398.813476562 180.055664062 c 0
 399.262695312 180.53515625 l 1
 383.73046875 198.842773438 l 1
 383.73046875 479.291992188 l 1
 392.516601562 487.356445312 399.357421875 495.974609375 403.9609375 505.51171875 c 0
 408.584960938 515.100585938 410.607421875 525.227539062 411.059570312 533.68359375 c 0
 411.509765625 542.686523438 410.321289062 550.0546875 408.176757812 556.260742188 c 1
 406.032226562 563.03515625 402.772460938 568.186523438 398.537109375 572.70703125 c 0
 394.431640625 577.145507812 389.084960938 581.12109375 383.73046875 583.81640625 c 1
 383.73046875 697.934570312 l 1
 410.018554688 693.391601562 435.170898438 685.190429688 455.375 674.178710938 c 1
 475.764648438 663.620117188 490.778320312 650.322265625 502.997070312 634.775390625 c 0
 515.268554688 619.223632812 524.762695312 601.458007812 531.095703125 581.463867188 c 0
 537.427734375 561.467773438 540.650390625 539.228515625 540.151367188 519.237304688 c 0
 539.70703125 498.690429688 535.547851562 480.395507812 527.442382812 462.0703125 c 0
 519.333984375 443.74609375 507.341796875 425.419921875 490.115234375 408.192382812 c 0
 472.888671875 390.966796875 450.413085938 374.829101562 426.108398438 362.59375 c 0
 425.279296875 362.17578125 l 1
 496.051757812 277.102539062 l 1
 496.6015625 277.916992188 l 0
 501.028320312 284.47265625 504.900390625 291.319335938 508.206054688 298.6015625 c 0
 511.565429688 305.880859375 514.317382812 313.181640625 516.5 321.021484375 c 1
 518.560546875 328.065429688 520.145507812 336.00390625 521.123046875 343.352539062 c 1
 656.8671875 343.352539062 l 1
 655.354492188 328.233398438 652.776367188 314.485351562 648.880859375 300.221679688 c 0
 644.985351562 285.754882812 639.8671875 271.125 633.583007812 257.2734375 c 0
 627.295898438 243.364257812 619.84375 229.904296875 611.33203125 217.109375 c 0
 602.875976562 204.372070312 593.306640625 192.298828125 582.90234375 181.060546875 c 0
 582.454101562 180.577148438 l 1
 722.83203125 17.767578125 l 1
 530.190429688 17.767578125 l 1
 482.975585938 74.458984375 l 1
 482.408203125 73.9794921875 l 0
 474.837890625 67.580078125 466.99609375 61.5146484375 458.866210938 55.89453125 c 0
 450.799804688 50.220703125 442.401367188 44.935546875 433.997070312 40.203125 c 0
 425.541992188 35.41796875 417.084960938 31.1904296875 408.572265625 27.408203125 c 0
 400.377929688 23.7685546875 392.09375 20.5302734375 383.73046875 17.71875 c 1
 383.73046875 167.0703125 l 0
 383.892578125 167.318359375 l 2
382.9921875 167.565429688 m 0
 386.1171875 169.90625 389.239257812 172.30078125 391.358398438 174.032226562 c 0
 393.479492188 175.821289062 394.592773438 176.8203125 395.596679688 177.82421875 c 0
 396.6015625 178.776367188 397.438476562 179.666015625 398.274414062 180.559570312 c 2
 382.9921875 198.572265625 l 1
 382.9921875 479.618164062 l 1
 391.581054688 487.427734375 398.720703125 496.352539062 403.295898438 505.83203125 c 0
 407.868164062 515.313476562 409.875 525.352539062 410.322265625 533.720703125 c 0
 410.768554688 542.643554688 409.595703125 549.89453125 407.4765625 556.029296875 c 0
 405.357421875 562.720703125 402.177734375 567.7421875 397.995117188 572.206054688 c 0
 393.869140625 576.666992188 388.682617188 580.568359375 382.9921875 583.358398438 c 1
 382.9921875 698.80859375 l 1
 409.374023438 694.3515625 435.252929688 685.986328125 455.721679688 674.830078125 c 0
 476.190429688 664.23046875 491.305664062 650.844726562 503.576171875 635.232421875 c 0
 515.90234375 619.611328125 525.439453125 601.763671875 531.798828125 581.686523438 c 0
 538.15625 561.611328125 541.390625 539.298828125 540.888671875 519.221679688 c 0
 540.442382812 498.583007812 536.258789062 480.178710938 528.1171875 461.771484375 c 0
 519.973632812 443.3671875 507.927734375 424.962890625 490.63671875 407.670898438 c 0
 473.34765625 390.381835938 450.814453125 374.205078125 426.440429688 361.934570312 c 1
 495.990234375 278.330078125 l 1
 500.396484375 284.856445312 504.244140625 291.658203125 507.536132812 298.911132812 c 0
 510.8828125 306.162109375 513.616210938 313.4140625 515.790039062 321.223632812 c 0
 517.911132812 328.474609375 519.471679688 336.279296875 520.475585938 344.090820312 c 1
 657.680664062 344.090820312 l 1
 656.23046875 329.02734375 653.552734375 314.528320312 649.59375 300.030273438 c 0
 645.688476562 285.52734375 640.556640625 270.859375 634.254882812 256.969726562 c 0
 627.952148438 243.024414062 620.479492188 229.528320312 611.946289062 216.701171875 c 0
 603.467773438 203.9296875 593.874023438 191.825195312 583.443359375 180.559570312 c 1
 724.442382812 17.029296875 l 1
 529.844726562 17.029296875 l 1
 482.884765625 73.416015625 l 1
 475.299804688 67.00390625 467.432617188 60.919921875 459.291015625 55.291015625 c 0
 451.204101562 49.6025390625 442.783203125 44.3037109375 434.360351562 39.560546875 c 0
 425.883789062 34.763671875 417.405273438 30.525390625 408.872070312 26.7333984375 c 0
 400.338867188 22.9443359375 391.75 19.5927734375 382.9921875 16.6953125 c 1
 382.9921875 167.565429688 l 0
320.860351562 2.7939453125 m 2
 321.262695312 2.7939453125 321.598632812 3.1298828125 321.598632812 3.5322265625 c 0
 321.598632812 134.743164062 l 1
 320.744140625 134.606445312 l 0
 311.403320312 133.111328125 301.786132812 133.221679688 291.713867188 135.1015625 c 0
 281.583984375 136.983398438 270.994140625 140.6484375 262.033203125 145.4609375 c 0
 253.006835938 150.220703125 245.66796875 156.071289062 239.7578125 162.702148438 c 0
 233.849609375 169.327148438 229.435546875 176.717773438 226.399414062 184.672851562 c 0
 223.303710938 192.62890625 221.592773438 201.18359375 221.372070312 209.693359375 c 1
 221.344726562 208.693359375 221.2890625 208.6171875 221.370117188 209.614257812 c 0
 221.756835938 214.370117188 222.530273438 219.010742188 223.74609375 223.595703125 c 0
 224.959960938 228.1171875 226.619140625 232.599609375 228.6640625 236.971679688 c 0
 230.709960938 241.338867188 233.190429688 245.635742188 236.45703125 250.069335938 c 1
 239.668945312 254.549804688 243.645507812 259.13671875 249.362304688 264.51953125 c 0
 255.079101562 269.904296875 262.5703125 276.005859375 271.083007812 281.739257812 c 1
 279.477539062 287.609375 288.403320312 292.33984375 298.40625 296.893554688 c 1
 321.598632812 269.807617188 l 1
 321.598632812 488.797851562 l 1
 321.443359375 488.997070312 l 0
 314.139648438 498.404296875 308.369140625 509.504882812 305.333984375 518.884765625 c 1
 302.244140625 528.813476562 301.806640625 537.634765625 302.686523438 545.349609375 c 0
 303.56640625 552.489257812 305.706054688 558.528320312 308.946289062 564.020507812 c 0
 312.140625 569.530273438 316.370117188 574.459960938 321.26953125 577.727539062 c 0
 321.598632812 577.947265625 l 1
 321.598632812 701.358398438 l 1
 320.735351562 701.2109375 l 0
 294.658203125 696.734375 269.284179688 687.793945312 248.115234375 676.591796875 c 1
 226.946289062 664.831054688 210.040039062 650.838867188 196.702148438 635.1484375 c 0
 183.311523438 619.459960938 173.453125 601.536132812 167.233398438 584.165039062 c 0
 161.012695312 566.793945312 158.432617188 549.954101562 158.936523438 530.911132812 c 0
 159.497070312 511.864257812 163.1953125 491.130859375 173.052734375 468.725585938 c 0
 182.817382812 447.086914062 198.206054688 423.794921875 217.486328125 403.454101562 c 1
 185.609375 388.947265625 155.686523438 369.60546875 133.137695312 349.665039062 c 0
 110.37109375 329.521484375 95.1962890625 308.80859375 84.783203125 288.65234375 c 0
 74.3681640625 268.3828125 68.705078125 248.534179688 66.85546875 226.635742188 c 0
 65.0087890625 204.793945312 66.9677734375 181.014648438 72.73046875 158.013671875 c 0
 78.5517578125 135.008789062 88.17578125 112.796875 100.999023438 93.64453125 c 0
 113.76953125 74.548828125 129.684570312 58.46484375 150.336914062 44.5810546875 c 0
 170.994140625 30.701171875 196.391601562 19.0693359375 225.640625 11.6298828125 c 0
 254.948242188 4.24609375 288.0859375 1.05859375 320.899414062 2.7958984375 c 0
 321.30078125 2.81640625 321.618164062 3.169921875 321.596679688 3.5712890625 c 0
 320.860351562 2.7939453125 l 2
320.122070312 4.232421875 m 1
 287.140625 2.5634765625 255.063476562 5.73828125 226.00390625 13.0595703125 c 0
 196.913085938 20.4599609375 171.669921875 32.025390625 151.161132812 45.8056640625 c 0
 130.655273438 59.58984375 114.892578125 75.5234375 102.225585938 94.46484375 c 0
 89.505859375 113.462890625 79.9423828125 135.530273438 74.162109375 158.373046875 c 0
 68.4384765625 181.217773438 66.4931640625 204.844726562 68.326171875 226.510742188 c 0
 70.16015625 248.229492188 75.7626953125 267.869140625 86.09375 287.974609375 c 0
 96.4267578125 307.9765625 111.482421875 328.533203125 134.116210938 348.559570312 c 0
 156.751953125 368.578125 186.927734375 388.06640625 219.041015625 402.538085938 c 0
 219.994140625 402.967773438 l 1
 219.270507812 403.721679688 l 0
 200.091796875 423.729492188 184.173828125 447.666992188 174.404296875 469.319335938 c 0
 164.62890625 491.5390625 160.967773438 512.073242188 160.411132812 530.950195312 c 0
 159.911132812 549.834960938 162.461914062 566.461914062 168.622070312 583.666992188 c 0
 174.78515625 600.877929688 184.559570312 618.649414062 197.827148438 634.193359375 c 0
 211.040039062 649.737304688 227.821289062 663.629882812 248.818359375 675.294921875 c 1
 269.569335938 686.275390625 294.737304688 695.135742188 320.122070312 699.606445312 c 1
 320.122070312 578.733398438 l 1
 315.0078125 575.209960938 310.889648438 570.314453125 307.674804688 564.770507812 c 0
 304.334960938 559.106445312 302.126953125 552.875976562 301.219726562 545.517578125 c 0
 300.318359375 537.6171875 300.76953125 528.584960938 303.927734375 518.4375 c 1
 306.995117188 508.958984375 313.056640625 497.444335938 320.122070312 488.29296875 c 1
 320.122070312 273.799804688 l 1
 298.806640625 298.694335938 l 1
 298.302734375 298.466796875 l 0
 288.408203125 293.995117188 278.819335938 288.950195312 270.247070312 282.956054688 c 1
 261.689453125 277.19140625 254.124023438 271.03125 248.350585938 265.59375 c 0
 242.581054688 260.16015625 238.524414062 255.487304688 235.263671875 250.936523438 c 1
 231.950195312 246.440429688 229.409179688 242.038085938 227.328125 237.596679688 c 0
 225.248046875 233.150390625 223.559570312 228.59375 222.3203125 223.974609375 c 0
 221.081054688 219.299804688 220.291992188 214.571289062 219.899414062 209.733398438 c 0
 219.896484375 209.694335938 l 1
 219.897460938 209.654296875 l 0
 220.122070312 200.978515625 221.870117188 192.24609375 225.020507812 184.147460938 c 0
 228.119140625 176.030273438 232.62890625 168.479492188 238.65625 161.719726562 c 0
 244.681640625 154.959960938 252.178710938 148.990234375 261.3359375 144.16015625 c 0
 270.4453125 139.267578125 281.16015625 135.561523438 291.442382812 133.650390625 c 0
 301.37890625 131.795898438 311.077148438 131.677734375 320.122070312 133.016601562 c 1
 320.122070312 4.232421875 l 1
320.860351562 3.5322265625 m 0
 288.12109375 1.7998046875 255.047851562 4.9814453125 225.822265625 12.3447265625 c 0
 196.65234375 19.7646484375 171.33203125 31.36328125 150.749023438 45.193359375 c 0
 130.169921875 59.02734375 114.331054688 75.0361328125 101.612304688 94.0546875 c 0
 88.8408203125 113.129882812 79.2470703125 135.26953125 73.4462890625 158.193359375 c 0
 67.703125 181.116210938 65.7509765625 204.819335938 67.5908203125 226.573242188 c 0
 69.4326171875 248.381835938 75.0654296875 268.125976562 85.4384765625 288.313476562 c 0
 95.8115234375 308.392578125 110.926757812 329.02734375 133.626953125 349.112304688 c 0
 156.327148438 369.1875 186.556640625 388.708007812 218.73828125 403.2109375 c 1
 199.495117188 423.286132812 183.543945312 447.270507812 173.728515625 469.022460938 c 0
 163.912109375 491.334960938 160.232421875 511.96875 159.673828125 530.930664062 c 0
 159.171875 549.89453125 161.737304688 566.627929688 167.927734375 583.916015625 c 0
 174.119140625 601.20703125 183.935546875 619.0546875 197.264648438 634.670898438 c 0
 210.540039062 650.288085938 227.383789062 664.23046875 248.466796875 675.943359375 c 0
 269.549804688 687.099609375 294.870117188 696.022460938 320.860351562 700.483398438 c 1
 320.860351562 578.341796875 l 1
 315.840820312 574.994140625 311.544921875 569.973632812 308.310546875 564.395507812 c 0
 305.020507812 558.817382812 302.846679688 552.682617188 301.953125 545.43359375 c 0
 301.0625 537.625976562 301.506835938 528.69921875 304.630859375 518.661132812 c 0
 307.69921875 509.178710938 313.499023438 498.026367188 320.860351562 488.544921875 c 1
 320.860351562 271.803710938 l 1
 298.606445312 297.793945312 l 1
 288.735351562 293.333007812 279.196289062 288.313476562 270.665039062 282.34765625 c 0
 262.129882812 276.598632812 254.6015625 270.467773438 248.856445312 265.056640625 c 0
 243.11328125 259.6484375 239.096679688 255.018554688 235.860351562 250.502929688 c 0
 232.5703125 246.038085938 230.059570312 241.688476562 227.99609375 237.284179688 c 0
 225.93359375 232.875 224.259765625 228.35546875 223.033203125 223.78515625 c 0
 221.805664062 219.155273438 221.024414062 214.470703125 220.634765625 209.673828125 c 0
 220.857421875 201.081054688 222.586914062 192.4375 225.709960938 184.41015625 c 0
 228.77734375 176.374023438 233.239257812 168.903320312 239.20703125 162.2109375 c 0
 245.174804688 155.515625 252.592773438 149.60546875 261.684570312 144.810546875 c 0
 270.719726562 139.958007812 281.372070312 136.272460938 291.578125 134.375976562 c 0
 301.729492188 132.481445312 311.435546875 132.369140625 320.860351562 133.877929688 c 1
 320.860351562 3.5322265625 l 0
EndSplineSet
Fore
SplineSet
382 700 m 9
 382 582 l 17
 405 570 409 557 409 533 c 0
 409 504 393 495 382 486 c 9
 382 198 l 1
 397 180 l 17
 390 174 389 173 382 168 c 9
 382 16 l 1
 416.974236153 26.2865400449 458.147188977 49.8509611927 482 72 c 9
 529 16 l 25
 726 16 l 25
 585 180 l 17
 610 210 620 225 635 257 c 24
 649 289 654 311 659 345 c 9
 520 345 l 17
 516.190883791 320.240744641 508.403659141 298.605488712 496 280 c 9
 428 361 l 17
 481 387 547 449 542 528 c 0
 536.202148438 619.604492188 489 681 382 700 c 9
322 578 m 1
 322 702 l 1
 218 681 159.43785648 621.194986077 159 528 c 0
 158.802450666 485.952871986 192 428 216 404 c 1
 142 368 57.3313736689 298.822340174 66 200 c 0
 76 86 146 0 322 3 c 9
 322 135 l 17
 280 127 222 157.492268657 222 204 c 0
 222 251 256 274 298 297 c 9
 322 269 l 1
 322 489 l 17
 316 495 296 501 296 536 c 0
 296 569 322 578 322 578 c 1
EndSplineSet
EndChar

StartChar: dollar
Encoding: 36 36 96
Width: 1024
VWidth: 0
Flags: H
LayerCount: 2
Back
SplineSet
547.748046875 751 m 1
 547.748046875 698.825195312 l 1
 573.5078125 693.884765625 598.713867188 685.094726562 617.608398438 675.756835938 c 0
 636.500976562 666.422851562 649.0234375 655.438476562 662.48046875 638.958984375 c 0
 675.989257812 622.486328125 690.487304688 599.965820312 699.66015625 580.743164062 c 0
 708.83203125 560.974609375 712.732421875 545.044921875 713.280273438 528.5703125 c 1
 577.1328125 501.658203125 l 2
 576.96484375 507.69921875 576.251953125 513.740234375 575.041015625 519.233398438 c 0
 573.8359375 524.7265625 572.2421875 529.670898438 570.265625 534.060546875 c 0
 568.290039062 538.456054688 566.036132812 542.850585938 563.620117188 546.145507812 c 0
 561.260742188 549.439453125 558.7890625 552.736328125 556.150390625 554.930664062 c 0
 553.513671875 557.6796875 550.71484375 559.873046875 547.748046875 561.51953125 c 2
 547.748046875 425.318359375 l 1
 589.654296875 411.5859375 629.85546875 391.267578125 657.53515625 370.9453125 c 0
 685.271484375 350.075195312 700.4296875 329.75390625 711.688476562 308.883789062 c 0
 722.946289062 288.015625 730.251953125 266.978515625 732.283203125 241.770507812 c 0
 734.26171875 216.561523438 730.91015625 187.012695312 722.397460938 158.236328125 c 0
 713.885742188 129.45703125 700.155273438 101.5 683.130859375 79.091796875 c 0
 666.102539062 56.6298828125 645.782226562 39.76953125 622.770507812 26.865234375 c 0
 599.7578125 14.0107421875 574.110351562 5.115234375 547.748046875 0.9951171875 c 1
 547.748046875 -52.5 l 1
 473 -52.5 l 1
 473 0.447265625 l 1
 445.979492188 5.115234375 419.616210938 13.734375 397.977539062 24.556640625 c 0
 376.33984375 35.3798828125 359.477539062 48.447265625 344.263671875 64.59375 c 0
 329.052734375 80.6884765625 315.487304688 99.9091796875 305.435546875 120.779296875 c 0
 295.385742188 141.704101562 288.794921875 164.331054688 285.8828125 187.344726562 c 1
 424.614257812 213.815429688 l 1
 424.06640625 204.977539062 424.944335938 196.077148438 427.196289062 187.565429688 c 0
 429.5 179.049804688 433.184570312 170.978515625 437.24609375 164.388671875 c 0
 441.256835938 157.853515625 445.59375 152.740234375 451.525390625 147.967773438 c 0
 457.458984375 143.241210938 464.98046875 138.793945312 473 135.5 c 1
 473 312.181640625 l 1
 437.6328125 324.810546875 403.6328125 341.8359375 380.674804688 357.765625 c 0
 357.71875 374.240234375 345.803710938 389.0703125 334.873046875 411.038085938 c 0
 324 432.45703125 314.114257812 461.017578125 309.829101562 485.18359375 c 0
 305.489257812 509.892578125 306.697265625 529.670898438 313.34375 552.736328125 c 0
 319.934570312 576.353515625 331.853515625 603.813476562 344.045898438 623.58203125 c 0
 356.23828125 643.356445312 368.592773438 655.438476562 390.014648438 668.0703125 c 0
 411.379882812 680.154296875 441.803710938 692.784179688 473 700.474609375 c 1
 473 751 l 1
 547.748046875 751 l 1
EndSplineSet
Fore
SplineSet
548 757 m 25
 472 757 l 25
 472 699 l 17
 381 684 308 605 308 506 c 0
 308 399 372 348 473 312 c 9
 473 136 l 17
 442.533300445 147.404472948 424.606340876 168.923051276 424 214 c 9
 285 187 l 17
 295 139 307 101 345 64 c 24
 385 24 423 11 473 0 c 9
 473 -53 l 25
 548 -53 l 25
 548 0 l 17
 665 19 733 123 733 224 c 0
 733 331 652 391 548 425 c 9
 548 562 l 17
 571.227893577 542.16590785 574.776062317 532.3436261 577 502 c 9
 713 528 l 17
 712 561 692 609 656 646 c 24
 623 680 589 692 548 698 c 9
 548 757 l 25
EndSplineSet
EndChar

StartChar: greater
Encoding: 62 62 97
Width: 1024
VWidth: 0
Flags: H
LayerCount: 2
Back
SplineSet
648.829101562 336.307617188 m 5
 215.293945312 158.299804688 l 5
 215.293945312 244.323242188 l 5
 521.6875 368.26953125 l 5
 215.293945312 492.993164062 l 5
 215.293945312 579.12890625 l 5
 648.829101562 401.005859375 l 5
 648.829101562 336.307617188 l 5
EndSplineSet
Fore
SplineSet
216 579 m 29
 216 479 l 29
 476 371 l 29
 215 265 l 29
 215 158 l 29
 650 337 l 29
 650 401 l 29
 216 579 l 29
EndSplineSet
EndChar

StartChar: less
Encoding: 60 60 98
Width: 1024
VWidth: 0
Flags: HW
LayerCount: 2
Back
Fore
SplineSet
642 579 m 29
 642 479 l 29
 382 371 l 29
 643 265 l 29
 643 158 l 29
 208 337 l 29
 208 401 l 29
 642 579 l 29
EndSplineSet
EndChar

StartChar: parenleft
Encoding: 40 40 99
Width: 1024
VWidth: 0
Flags: H
LayerCount: 2
Back
Fore
SplineSet
421 734.560546875 m 13
 422.080078125 648.16015625 l 21
 383.16796875 625.190429688 362.36328125 593.318359375 360.51953125 520.719726562 c 13
 360.51953125 207.51953125 l 21
 359.666015625 104.614257812 384.620117188 73.28515625 421 50.919921875 c 13
 421 -36.560546875 l 21
 278.82421875 22.4296875 266.994140625 92.830078125 257.919921875 189.16015625 c 13
 257.919921875 509.919921875 l 21
 266.176757812 651.728515625 322.0390625 695.912109375 421 734.560546875 c 13
EndSplineSet
EndChar

StartChar: exclam
Encoding: 33 33 101
Width: 440
VWidth: 0
Flags: HW
HStem: -22 150.62<124.411 231.284> 580 120<160 276>
VStem: 41 119<495 580> 102.537 150.62<-0.127075 106.747> 115 129<166 305> 276 122<416 580>
LayerCount: 2
Back
Fore
SplineSet
115 166 m 25
 244 166 l 25
 244 700 l 29
 115 700 l 25
 115 166 l 25
102.537109375 53.3095703125 m 0xd4
 102.537109375 95.39453125 135.762695312 128.620117188 177.84765625 128.620117188 c 0
 219.932617188 128.620117188 253.157226562 95.39453125 253.157226562 53.3095703125 c 0
 253.157226562 11.224609375 219.932617188 -22 177.84765625 -22 c 0
 135.762695312 -22 102.537109375 11.224609375 102.537109375 53.3095703125 c 0xd4
EndSplineSet
EndChar

StartChar: sterling
Encoding: 163 163 102
Width: 1024
VWidth: 0
Flags: H
LayerCount: 2
Back
SplineSet
48.677734375 281.423828125 m 5
 48.677734375 388.318359375 l 5
 104.771484375 388.318359375 l 5
 104.771484375 547.608398438 l 6
 104.771484375 569.833007812 109.84765625 592.057617188 115.247070312 610.05078125 c 4
 121.916015625 628.045898438 131.38671875 641.801757812 142.713867188 653.97265625 c 4
 154.037109375 665.6171875 167.16015625 675.670898438 184.78515625 682.551757812 c 4
 202.404296875 689.959960938 224.474609375 694.192382812 246.43359375 694.192382812 c 6
 327.403320312 694.192382812 l 6
 347.561523438 694.192382812 367.936523438 689.428710938 384.764648438 684.66796875 c 4
 401.59375 678.318359375 414.984375 669.322265625 426.784179688 657.6796875 c 4
 438.583007812 646.56640625 448.744140625 633.333984375 456.046875 614.284179688 c 4
 463.403320312 595.765625 468.114257812 571.946289062 468.114257812 548.135742188 c 6
 468.114257812 474.576171875 l 5
 336.766601562 474.576171875 l 5
 336.766601562 542.313476562 l 6
 336.766601562 550.252929688 335.657226562 558.192382812 334.59765625 564.010742188 c 4
 333.22265625 569.305664062 331.370117188 572.479492188 329.623046875 574.06640625 c 4
 327.82421875 576.184570312 326.18359375 577.767578125 323.274414062 578.30078125 c 4
 320.361328125 579.359375 316.182617188 579.891601562 312.055664062 579.891601562 c 6
 260.775390625 579.891601562 l 6
 256.966796875 579.891601562 253.103515625 579.359375 250.401367188 578.830078125 c 4
 247.65234375 577.767578125 246.01171875 576.712890625 244.262695312 575.125976562 c 4
 242.518554688 573.0078125 240.66796875 570.358398438 239.291015625 564.54296875 c 4
 237.916015625 559.25 237.067382812 550.252929688 237.067382812 541.784179688 c 6
 237.067382812 388.318359375 l 5
 375.874023438 388.318359375 l 5
 375.874023438 281.423828125 l 5
 237.067382812 281.423828125 l 5
 237.067382812 118.060546875 l 5
 487.322265625 118.060546875 l 5
 487.322265625 3.8076171875 l 5
 104.771484375 3.8076171875 l 5
 104.771484375 281.423828125 l 5
 48.677734375 281.423828125 l 5
EndSplineSet
Fore
SplineSet
337 474 m 25
 469 474 l 25
 469 545 l 17
 469 553 469 611 443 640 c 24
 411 675 384 694 333 694 c 9
 245 694 l 17
 225 694 175 690 148 660 c 24
 114 624 104 589 104 541 c 9
 104 388 l 25
 47.998046875 388 l 25
 47.998046875 281 l 25
 104 281 l 25
 104 0 l 25
 488 0 l 25
 488 117 l 25
 236 117 l 25
 236 282 l 25
 376 282 l 25
 376 389 l 25
 237 389 l 25
 237 544 l 17
 237.421881609 571.109408045 240.318166556 579.610380889 263 580 c 9
 312 580 l 21
 333.650213851 581.14990835 337.06719545 565.1093485 337 547 c 13
 337 474 l 25
EndSplineSet
EndChar

StartChar: yen
Encoding: 165 165 103
Width: 1024
VWidth: 0
Flags: H
LayerCount: 2
Back
SplineSet
618.430664062 295.979492188 m 1
 760.071289062 295.979492188 l 1
 760.071289062 237.43359375 l 1
 608.107421875 237.43359375 l 1
 608.107421875 0.705078125 l 1
 470.802734375 0.705078125 l 1
 470.802734375 237.43359375 l 1
 318.833984375 237.43359375 l 1
 318.833984375 295.979492188 l 1
 460.532226562 295.979492188 l 1
 445.318359375 350.350585938 l 1
 318.833984375 350.350585938 l 1
 318.833984375 409.116210938 l 1
 428.897460938 409.116210938 l 1
 341 698 l 1
 478.303710938 698 l 1
 540.453125 486.008789062 l 1
 600.60546875 698 l 1
 737.912109375 698 l 1
 650.01171875 409.116210938 l 1
 760.071289062 409.116210938 l 1
 760.071289062 350.350585938 l 1
 633.588867188 350.350585938 l 1
 618.430664062 295.979492188 l 1
EndSplineSet
Fore
SplineSet
478 698 m 1049
341 698 m 25,1,-1
 478 698 l 25,2,-1
 541 485 l 25,3,-1
 601 698 l 25,4,-1
 738 698 l 25,5,-1
 650 408 l 25,6,-1
 761 408 l 25,7,-1
 761 350 l 25,8,-1
 633 350 l 25,9,-1
 619 295 l 25,10,-1
 761 295 l 25,11,-1
 761 236 l 25,12,-1
 608 236 l 25,13,-1
 608 0 l 25,14,-1
 471 0 l 25,15,-1
 471 238 l 25,16,-1
 318 238 l 25,17,-1
 319 295 l 25,18,-1
 461 295 l 25,19,-1
 445 351 l 25,20,-1
 318 351 l 25,21,-1
 318 409 l 25,22,-1
 430 409 l 25,23,-1
 341 698 l 25,1,-1
EndSplineSet
EndChar

StartChar: EURO
Encoding: 271 8364 104
Width: 1024
VWidth: 0
Flags: H
LayerCount: 2
Back
Fore
SplineSet
552 2 m 13
 552 142 l 21
 580.3203125 150.75390625 595 165.284179688 595 199 c 14
 594 237 l 29
 731 186 l 21
 731 156 715 102 678 64 c 28
 640 25 601 3 552 2 c 13
552 698 m 9
 552 558 l 17
 580.319828266 549.24581242 595 534.715557821 595 501 c 10
 594 463 l 25
 731 514 l 17
 731 544 715 598 678 636 c 24
 640 675 601 697 552 698 c 9
492 698 m 1
 492 558 l 17
 452.736139943 543.401052479 450 531.77414901 450 488 c 10
 450 436 l 25
 622 436 l 25
 622 376 l 25
 450 376 l 25
 450 317 l 25
 622 317 l 25
 622 258 l 25
 450 258 l 25
 450 202 l 18
 450 155.287671574 468.449164963 154.130501022 492 141 c 9
 492 2 l 1
 411 8 382 45 348 90 c 0
 326.686631736 118.208869762 315 149 313 182 c 1
 313 258 l 25
 264 258 l 25
 264 317 l 25
 313 317 l 25
 313 377 l 25
 264 377 l 25
 264 436 l 25
 313 436 l 25
 313 496 l 1
 312 538 321.277739241 575.501624618 348 613 c 0
 385.690490924 665.889693345 431 696 492 698 c 1
EndSplineSet
EndChar

StartChar: HKD
Encoding: 272 22291 105
Width: 1024
VWidth: 0
Flags: HW
HStem: 0 21G<68.4982 209.498 350.999 493.498> 0 21G<350.999 493.498> 680 20G<68.4982 209.498 344.519 489.498>
VStem: 68.4982 141<0 700>
LayerCount: 2
Back
Fore
SplineSet
301.84765625 698 m 5xb0
 343.547851562 698 l 5
 317.748046875 610.700195312 l 5
 344.748046875 488 l 29
 303.34765625 488 l 29
 275.748046875 610.700195312 l 5
 301.84765625 698 l 5xb0
150.299804688 614 m 1xe4
 150.299804688 572.600585938 l 1
 136.5 572.600585938 l 1
 136.5 614 l 1
 150.299804688 614 l 1xe4
120 614 m 1xe8
 120 572.600585938 l 1
 106.200195312 572.600585938 l 1
 106.200195312 614 l 1
 120 614 l 1xe8
616 757 m 29
 540 757 l 29
 540 699 l 21
 449 684 376 605 376 506 c 4
 376 399 440 348 541 312 c 13
 541 136 l 21
 510.533203125 147.404296875 492.606445312 168.922851562 492 214 c 13
 353 187 l 21
 363 139 375 101 413 64 c 28
 453 24 491 11 541 0 c 13
 541 -53 l 29
 616 -53 l 29
 616 0 l 21
 733 19 801 123 801 224 c 4
 801 331 720 391 616 425 c 13
 616 562 l 21
 639.227539062 542.166015625 642.776367188 532.34375 645 502 c 13
 781 528 l 21
 780 561 760 609 724 646 c 28
 691 680 657 692 616 698 c 13
 616 757 l 29
EndSplineSet
Refer: 2 -1 N 0.3 0 0 0.3 204.048 488 2
Refer: 2 -1 N 0.3 0 0 0.3 55.8 487.7 2
Refer: 2 -1 N 0.3 0 0 0.3 132 487.7 2
EndChar

StartChar: NameMe.167
Encoding: 273 -1 106
Width: 1024
VWidth: 0
Flags: HW
HStem: 0 21G<263.854 307.854> 0 21G<263.854 307.854> 680.917 19.75G<183.354 208.854 263.771 316.42>
VStem: 35.8545 135<463.203 554.697> 327.854 132<161.573 263.302>
LayerCount: 2
Back
Fore
SplineSet
265.525390625 487.725585938 m 0x78
 232.173828125 487.688476562 207.944335938 522.452148438 207.96875 543.130859375 c 0
 248.670898438 550.791992188 l 0
 248.78515625 533.709960938 265.83203125 527.052734375 265.525390625 527.185546875 c 0
 265.525390625 487.725585938 l 0x78
282 698 m 0
 313.588867188 698 335.725585938 663.525390625 335.725585938 645.525390625 c 0
 295.225585938 638.325195312 l 0
 295.225585938 653.924804688 281.700195312 657.872070312 282 657.725585938 c 0
 282 698 l 0
265.525390625 697.92578125 m 9
 265.525390625 657.42578125 l 17
 259.225585938 655.725585938 254.125 647.924804688 254.125 640.725585938 c 3
 254.125 618.825195312 285.283203125 618.477539062 305.424804688 606.525390625 c 0
 323.815429688 595.612304688 340.825195312 583.725585938 340.825195312 551.924804688 c 3
 340.825195312 518.325195312 308.424804688 488.025390625 282.025390625 487.725585938 c 9xb8
 282.025390625 527.325195312 l 17
 289.825195312 530.325195312 301.225585938 539.325195312 301.225585938 550.725585938 c 27
 301.225585938 575.025390625 268.727539062 578.048828125 250.825195312 586.725585938 c 0
 229.506835938 597.057617188 213.625 608.625 213.625 640.125 c 3
 213.625 683.625 250.225585938 697.725585938 265.525390625 697.92578125 c 9
616 757 m 25
 540 757 l 25
 540 699 l 17
 449 684 376 605 376 506 c 0
 376 399 440 348 541 312 c 9
 541 136 l 17
 510.533203125 147.404296875 492.606445312 168.922851562 492 214 c 9
 353 187 l 17
 363 139 375 101 413 64 c 24
 453 24 491 11 541 0 c 9
 541 -53 l 25
 616 -53 l 25
 616 0 l 17
 733 19 801 123 801 224 c 0
 801 331 720 391 616 425 c 9
 616 562 l 17
 639.227539062 542.166015625 642.776367188 532.34375 645 502 c 9
 781 528 l 17
 780 561 760 609 724 646 c 24
 691 680 657 692 616 698 c 9
 616 757 l 25
EndSplineSet
EndChar

StartChar: Percent_sign
Encoding: 37 37 107
Width: 688
VWidth: 0
Flags: HW
LayerCount: 2
Back
SplineSet
402.200195312 313 m 13
 402.200195312 263 l 21
 429 256.600585938 425.400390625 194.600585938 425.400390625 176.600585938 c 4
 425.400390625 139 426.200195312 89 402.600585938 83.400390625 c 13
 402.600585938 33.80078125 l 21
 429 35 475.400390625 57.80078125 475.400390625 175 c 4
 475.400390625 274.600585938 437.799804688 311 402.200195312 313 c 13
378.200195312 313 m 13
 378.200195312 263 l 21
 351.400390625 256.600585938 355 194.600585938 355 176.600585938 c 4
 355 139 354.200195312 89 377.799804688 83.400390625 c 13
 377.799804688 33.80078125 l 21
 351.400390625 35 305 57.80078125 305 175 c 4
 305 274.600585938 342.600585938 311 378.200195312 313 c 13
69.7998046875 666 m 9
 69.7998046875 616 l 17
 96.599609375 609.600585938 93 547.600585938 93 529.600585938 c 0
 93 492 93.7998046875 442 70.2001953125 436.400390625 c 9
 70.2001953125 386.80078125 l 17
 96.599609375 388 143 410.80078125 143 528 c 0
 143 627.600585938 105.399414062 664 69.7998046875 666 c 9
45.7998046875 666 m 9
 45.7998046875 616 l 17
 19 609.600585938 22.599609375 547.600585938 22.599609375 529.600585938 c 0
 22.599609375 492 21.7998046875 442 45.3994140625 436.400390625 c 9
 45.3994140625 386.80078125 l 17
 19 388 -27.400390625 410.80078125 -27.400390625 528 c 0
 -27.400390625 627.600585938 10.2001953125 664 45.7998046875 666 c 9
EndSplineSet
Fore
SplineSet
411 117 m 0
 411 177 459 225 519 225 c 0
 579 225 627 177 627 117 c 0
 627 57 579 9 519 9 c 0
 459 9 411 57 411 117 c 0
50 575 m 0
 50 635 98 683 158 683 c 0
 218 683 266 635 266 575 c 0
 266 515 218 467 158 467 c 0
 98 467 50 515 50 575 c 0
184 -23 m 25
 311 -23 l 25
 485 716 l 25
 359 716 l 25
 184 -23 l 25
EndSplineSet
EndChar

StartChar: numbersign
Encoding: 35 35 108
Width: 460
VWidth: 0
Flags: HW
LayerCount: 2
Back
Fore
SplineSet
551.75 175.299804688 m 5
 -80.9501953125 176.25 l 5
 -56.25 296.900390625 l 5
 569.799804688 295.950195312 l 5
 551.75 175.299804688 l 5
585.950195312 403.299804688 m 5
 -46.75 404.25 l 5
 -24.900390625 524.900390625 l 5
 604.950195312 523.950195312 l 5
 585.950195312 403.299804688 l 5
379.25 22.349609375 m 5
 258.599609375 22.349609375 l 5
 374.200195312 681.650390625 l 5
 494.849609375 681.650390625 l 5
 379.25 22.349609375 l 5
153.150390625 22.349609375 m 5
 32.5 22.349609375 l 5
 148.099609375 681.650390625 l 5
 268.75 681.650390625 l 5
 153.150390625 22.349609375 l 5
EndSplineSet
EndChar

StartChar: asciicircum
Encoding: 94 94 109
Width: 1024
VWidth: 0
Flags: HW
LayerCount: 2
Back
Fore
SplineSet
133.400390625 511.400390625 m 25
 229 512.599609375 l 25
 285.400390625 649.799804688 l 29
 352.799804688 513.799804688 l 25
 455.599609375 515.799804688 l 25
 329.400390625 761.200195312 l 25
 234.200195312 761.200195312 l 25
 133.400390625 511.400390625 l 25
EndSplineSet
EndChar

StartChar: bracketleft
Encoding: 91 91 110
Width: 1024
VWidth: 0
Flags: HW
LayerCount: 2
Back
SplineSet
421 734.560546875 m 13
 422.080078125 648.16015625 l 21
 383.16796875 625.190429688 362.36328125 593.318359375 360.51953125 520.719726562 c 13
 360.51953125 207.51953125 l 21
 359.666015625 104.614257812 384.620117188 73.28515625 421 50.919921875 c 13
 421 -36.560546875 l 21
 278.82421875 22.4296875 266.994140625 92.830078125 257.919921875 189.16015625 c 13
 257.919921875 509.919921875 l 21
 266.176757812 651.728515625 322.0390625 695.912109375 421 734.560546875 c 13
EndSplineSet
Fore
SplineSet
351.998046875 739 m 29
 193.998046875 739 l 29
 193.998046875 -36 l 29
 350.998046875 -36 l 29
 350.998046875 54 l 29
 298.998046875 54 l 29
 301.998046875 649 l 29
 351.998046875 649 l 29
 351.998046875 739 l 29
EndSplineSet
EndChar

StartChar: bracketright
Encoding: 93 93 111
Width: 317
VWidth: 0
Flags: HW
LayerCount: 2
Back
Refer: 99 40 S -1 0 0 1 728 0 2
Refer: 99 40 N -1 0 0 1 728 0 2
Fore
SplineSet
78.998046875 739 m 25
 236.998046875 739 l 25
 236.998046875 -36 l 25
 79.998046875 -36 l 25
 79.998046875 54 l 25
 131.998046875 54 l 25
 128.998046875 649 l 25
 78.998046875 649 l 25
 78.998046875 739 l 25
EndSplineSet
EndChar

StartChar: braceleft
Encoding: 123 123 112
Width: 1024
VWidth: 0
Flags: HW
LayerCount: 2
Back
SplineSet
421 734.560546875 m 13
 422.080078125 648.16015625 l 21
 383.16796875 625.190429688 362.36328125 593.318359375 360.51953125 520.719726562 c 13
 360.51953125 207.51953125 l 21
 359.666015625 104.614257812 384.620117188 73.28515625 421 50.919921875 c 13
 421 -36.560546875 l 21
 278.82421875 22.4296875 266.994140625 92.830078125 257.919921875 189.16015625 c 13
 257.919921875 509.919921875 l 21
 266.176757812 651.728515625 322.0390625 695.912109375 421 734.560546875 c 13
EndSplineSet
Fore
SplineSet
422 735 m 13
 422 662 l 21
 353.517578125 661.842773438 355.028320312 617.85546875 354 496 c 13
 354 384 l 21
 354.548828125 366.154296875 334.528320312 354.01953125 310 348 c 5
 334.666992188 339.5546875 353.842773438 325.104492188 354 304 c 13
 354 178 l 21
 353.943359375 56.49609375 366.975585938 31.0244140625 421 31 c 13
 421 -38 l 21
 322.441234424 -37.6353250263 258.428787138 -45.6021139536 258 192 c 13
 258 290 l 21
 257.602080966 322.352549716 231.982421875 328.809570312 196 348 c 21
 232.049804688 363.025390625 257.4921875 369.815429688 258 408 c 13
 258 504 l 22
 258 714.622968215 313 735 422 735 c 13
EndSplineSet
EndChar

StartChar: underscore
Encoding: 95 95 113
Width: 975
VWidth: 0
Flags: HW
LayerCount: 2
Back
Fore
SplineSet
854 -204 m 25
 854 -75 l 25
 114 -75 l 25
 114 -204 l 25
 854 -204 l 25
EndSplineSet
EndChar

StartChar: braceright
Encoding: 125 125 114
Width: 1024
VWidth: 0
Flags: HW
LayerCount: 2
Back
Fore
SplineSet
104 734 m 13
 104 661 l 21
 172.482421875 660.842773438 170.971679688 616.85546875 172 495 c 13
 172 383 l 21
 171.451171875 365.154296875 191.471679688 353.01953125 216 347 c 5
 191.333007812 338.5546875 172.157226562 324.104492188 172 303 c 13
 172 177 l 21
 172.056640625 55.49609375 159.024414062 30.0244140625 105 30 c 13
 105 -39 l 21
 203.55859375 -38.6357421875 267.571289062 -46.6025390625 268 191 c 13
 268 289 l 21
 268.397460938 321.352539062 294.017578125 327.809570312 330 347 c 21
 293.950195312 362.025390625 268.5078125 368.815429688 268 407 c 13
 268 503 l 22
 268 713.623046875 213 734 104 734 c 13
EndSplineSet
EndChar

StartChar: bar
Encoding: 124 124 115
Width: 221
VWidth: 0
Flags: HW
HStem: 0 21G<41 168> 681 20G<41 168>
VStem: 41 127<0 701>
LayerCount: 2
Back
Fore
SplineSet
41 754 m 1
 146 754 l 5
 146 -134 l 5
 41 -134 l 1
 41 754 l 1
EndSplineSet
EndChar

StartChar: asciitilde
Encoding: 126 126 116
Width: 655
VWidth: 0
Flags: HW
LayerCount: 2
Back
Fore
SplineSet
518.998046875 281.200195312 m 5
 274.998046875 134 255.998046875 400.200195312 51.1982421875 271.600585938 c 1
 48.998046875 405 l 1
 271.3984375 531.600585938 281.797851562 266.400390625 517.3984375 412.200195312 c 5
 518.998046875 281.200195312 l 5
EndSplineSet
EndChar
